<svg xmlns="http://www.w3.org/2000/svg" width="800" height="450" viewBox="0 0 800 450" role="img" aria-label="C22 / A370-C22">
  <defs>
    <radialGradient id="bg" cx="50%" cy="50%" r="80%">
      <stop offset="0%" stop-color="#211207"/>
      <stop offset="42%" stop-color="#0b0a0b"/>
      <stop offset="100%" stop-color="#000000"/>
    </radialGradient>
    <radialGradient id="glow" cx="50%" cy="50%" r="50%">
      <stop offset="0%" stop-color="#ffffff" stop-opacity="1"/>
      <stop offset="35%" stop-color="#ffd88d" stop-opacity="0.76"/>
      <stop offset="100%" stop-color="#ff8a00" stop-opacity="0"/>
    </radialGradient>
    <filter id="blur"><feGaussianBlur stdDeviation="1.2"/></filter>
  </defs>
  <rect width="800" height="450" fill="url(#bg)"/>
  <circle cx="495" cy="315" r="0.8" fill="#f0c36b" opacity="0.31"/>
  <circle cx="556" cy="412" r="1.1" fill="#f0c36b" opacity="0.69"/>
  <circle cx="617" cy="59" r="1.5" fill="#f0c36b" opacity="0.53"/>
  <circle cx="678" cy="156" r="0.8" fill="#f0c36b" opacity="0.36"/>
  <circle cx="739" cy="253" r="1.1" fill="#f0c36b" opacity="0.75"/>
  <circle cx="0" cy="350" r="1.5" fill="#f0c36b" opacity="0.58"/>
  <circle cx="61" cy="447" r="0.8" fill="#f0c36b" opacity="0.42"/>
  <circle cx="122" cy="94" r="1.1" fill="#f0c36b" opacity="0.25"/>
  <circle cx="183" cy="191" r="1.5" fill="#f0c36b" opacity="0.64"/>
  <circle cx="244" cy="288" r="0.8" fill="#f0c36b" opacity="0.47"/>
  <circle cx="305" cy="385" r="1.1" fill="#f0c36b" opacity="0.31"/>
  <circle cx="366" cy="32" r="1.5" fill="#f0c36b" opacity="0.69"/>
  <circle cx="427" cy="129" r="0.8" fill="#f0c36b" opacity="0.53"/>
  <circle cx="488" cy="226" r="1.1" fill="#f0c36b" opacity="0.36"/>
  <circle cx="549" cy="323" r="1.5" fill="#f0c36b" opacity="0.75"/>
  <circle cx="610" cy="420" r="0.8" fill="#f0c36b" opacity="0.58"/>
  <circle cx="671" cy="67" r="1.1" fill="#f0c36b" opacity="0.42"/>
  <circle cx="732" cy="164" r="1.5" fill="#f0c36b" opacity="0.25"/>
  <circle cx="793" cy="261" r="0.8" fill="#f0c36b" opacity="0.64"/>
  <circle cx="54" cy="358" r="1.1" fill="#f0c36b" opacity="0.47"/>
  <circle cx="115" cy="5" r="1.5" fill="#f0c36b" opacity="0.31"/>
  <circle cx="176" cy="102" r="0.8" fill="#f0c36b" opacity="0.69"/>
  <circle cx="237" cy="199" r="1.1" fill="#f0c36b" opacity="0.53"/>
  <circle cx="298" cy="296" r="1.5" fill="#f0c36b" opacity="0.36"/>
  <circle cx="359" cy="393" r="0.8" fill="#f0c36b" opacity="0.75"/>
  <circle cx="420" cy="40" r="1.1" fill="#f0c36b" opacity="0.58"/>
  <circle cx="481" cy="137" r="1.5" fill="#f0c36b" opacity="0.42"/>
  <circle cx="542" cy="234" r="0.8" fill="#f0c36b" opacity="0.25"/>
  <circle cx="603" cy="331" r="1.1" fill="#f0c36b" opacity="0.64"/>
  <circle cx="664" cy="428" r="1.5" fill="#f0c36b" opacity="0.47"/>
  <circle cx="725" cy="75" r="0.8" fill="#f0c36b" opacity="0.31"/>
  <circle cx="786" cy="172" r="1.1" fill="#f0c36b" opacity="0.69"/>
  <circle cx="47" cy="269" r="1.5" fill="#f0c36b" opacity="0.53"/>
  <circle cx="108" cy="366" r="0.8" fill="#f0c36b" opacity="0.36"/>
  <circle cx="169" cy="13" r="1.1" fill="#f0c36b" opacity="0.75"/>
  <circle cx="230" cy="110" r="1.5" fill="#f0c36b" opacity="0.58"/>
  <circle cx="291" cy="207" r="0.8" fill="#f0c36b" opacity="0.42"/>
  <circle cx="352" cy="304" r="1.1" fill="#f0c36b" opacity="0.25"/>
  <circle cx="413" cy="401" r="1.5" fill="#f0c36b" opacity="0.64"/>
  <circle cx="474" cy="48" r="0.8" fill="#f0c36b" opacity="0.47"/>
  <circle cx="535" cy="145" r="1.1" fill="#f0c36b" opacity="0.31"/>
  <circle cx="596" cy="242" r="1.5" fill="#f0c36b" opacity="0.69"/>
  <circle cx="657" cy="339" r="0.8" fill="#f0c36b" opacity="0.53"/>
  <circle cx="718" cy="436" r="1.1" fill="#f0c36b" opacity="0.36"/>
  <circle cx="779" cy="83" r="1.5" fill="#f0c36b" opacity="0.75"/>
  <circle cx="40" cy="180" r="0.8" fill="#f0c36b" opacity="0.58"/>
  <circle cx="101" cy="277" r="1.1" fill="#f0c36b" opacity="0.42"/>
  <circle cx="162" cy="374" r="1.5" fill="#f0c36b" opacity="0.25"/>
  <circle cx="223" cy="21" r="0.8" fill="#f0c36b" opacity="0.64"/>
  <circle cx="284" cy="118" r="1.1" fill="#f0c36b" opacity="0.47"/>
  <circle cx="345" cy="215" r="1.5" fill="#f0c36b" opacity="0.31"/>
  <circle cx="406" cy="312" r="0.8" fill="#f0c36b" opacity="0.69"/>
  <circle cx="467" cy="409" r="1.1" fill="#f0c36b" opacity="0.53"/>
  <circle cx="528" cy="56" r="1.5" fill="#f0c36b" opacity="0.36"/>
  <circle cx="589" cy="153" r="0.8" fill="#f0c36b" opacity="0.75"/>
  <circle cx="650" cy="250" r="1.1" fill="#f0c36b" opacity="0.58"/>
  <circle cx="711" cy="347" r="1.5" fill="#f0c36b" opacity="0.42"/>
  <circle cx="772" cy="444" r="0.8" fill="#f0c36b" opacity="0.25"/>
  <circle cx="33" cy="91" r="1.1" fill="#f0c36b" opacity="0.64"/>
  <circle cx="94" cy="188" r="1.5" fill="#f0c36b" opacity="0.47"/>
  <circle cx="155" cy="285" r="0.8" fill="#f0c36b" opacity="0.31"/>
  <circle cx="216" cy="382" r="1.1" fill="#f0c36b" opacity="0.69"/>
  <circle cx="277" cy="29" r="1.5" fill="#f0c36b" opacity="0.53"/>
  <circle cx="338" cy="126" r="0.8" fill="#f0c36b" opacity="0.36"/>
  <circle cx="399" cy="223" r="1.1" fill="#f0c36b" opacity="0.75"/>
  <circle cx="460" cy="320" r="1.5" fill="#f0c36b" opacity="0.58"/>
  <circle cx="400" cy="245" r="118" fill="none" stroke="#f0b15c" stroke-width="8" opacity="0.55"/>
  <circle cx="400" cy="245" r="130" fill="none" stroke="#ffe0a8" stroke-width="1.5" opacity="0.62"/>
  <circle cx="400" cy="245" r="102" fill="none" stroke="#ff7a2a" stroke-width="1" opacity="0.28"/>
  <path d="M330 245 C360 198 430 198 470 245 C430 292 360 292 330 245 Z" fill="none" stroke="#f0c36b" stroke-width="2" opacity="0.5"/>
  <path d="M400 185 L408 234 L456 245 L408 256 L400 305 L392 256 L344 245 L392 234 Z" fill="#fff8e8" opacity="0.84"/>
  <circle cx="318" cy="146" r="12" fill="#fff6d7" opacity="0.98"/><circle cx="318" cy="146" r="30" fill="url(#glow)" opacity="0.45"/>
  <circle cx="494" cy="169" r="12" fill="#fff6d7" opacity="0.98"/><circle cx="494" cy="169" r="30" fill="url(#glow)" opacity="0.45"/>
  <circle cx="296" cy="344" r="12" fill="#fff6d7" opacity="0.98"/><circle cx="296" cy="344" r="30" fill="url(#glow)" opacity="0.45"/>
  <rect x="34" y="320" width="732" height="84" rx="20" fill="#020202" opacity="0.64" stroke="#d7a64a" stroke-width="1"/>
  <text x="60" y="356" fill="#ffe8b6" font-size="30" font-family="serif" font-weight="700">C22 / A370-C22</text>
  <text x="60" y="386" fill="#c7a15a" font-size="18" font-family="serif">Lensed SN · Abell 370 candidate</text>
</svg>
