<svg xmlns="http://www.w3.org/2000/svg" width="800" height="450" viewBox="0 0 800 450" role="img" aria-label="B1608+656">
  <defs>
    <radialGradient id="bg" cx="50%" cy="50%" r="80%">
      <stop offset="0%" stop-color="#211207"/>
      <stop offset="42%" stop-color="#0b0a0b"/>
      <stop offset="100%" stop-color="#000000"/>
    </radialGradient>
    <radialGradient id="glow" cx="50%" cy="50%" r="50%">
      <stop offset="0%" stop-color="#ffffff" stop-opacity="1"/>
      <stop offset="35%" stop-color="#ffd88d" stop-opacity="0.76"/>
      <stop offset="100%" stop-color="#ff8a00" stop-opacity="0"/>
    </radialGradient>
    <filter id="blur"><feGaussianBlur stdDeviation="1.2"/></filter>
  </defs>
  <rect width="800" height="450" fill="url(#bg)"/>
  <circle cx="222" cy="318" r="0.8" fill="#f0c36b" opacity="0.58"/>
<circle cx="283" cy="415" r="1.1" fill="#f0c36b" opacity="0.42"/>
<circle cx="344" cy="62" r="1.5" fill="#f0c36b" opacity="0.25"/>
<circle cx="405" cy="159" r="0.8" fill="#f0c36b" opacity="0.64"/>
<circle cx="466" cy="256" r="1.1" fill="#f0c36b" opacity="0.47"/>
<circle cx="527" cy="353" r="1.5" fill="#f0c36b" opacity="0.31"/>
<circle cx="588" cy="0" r="0.8" fill="#f0c36b" opacity="0.69"/>
<circle cx="649" cy="97" r="1.1" fill="#f0c36b" opacity="0.53"/>
<circle cx="710" cy="194" r="1.5" fill="#f0c36b" opacity="0.36"/>
<circle cx="771" cy="291" r="0.8" fill="#f0c36b" opacity="0.75"/>
<circle cx="32" cy="388" r="1.1" fill="#f0c36b" opacity="0.58"/>
<circle cx="93" cy="35" r="1.5" fill="#f0c36b" opacity="0.42"/>
<circle cx="154" cy="132" r="0.8" fill="#f0c36b" opacity="0.25"/>
<circle cx="215" cy="229" r="1.1" fill="#f0c36b" opacity="0.64"/>
<circle cx="276" cy="326" r="1.5" fill="#f0c36b" opacity="0.47"/>
<circle cx="337" cy="423" r="0.8" fill="#f0c36b" opacity="0.31"/>
<circle cx="398" cy="70" r="1.1" fill="#f0c36b" opacity="0.69"/>
<circle cx="459" cy="167" r="1.5" fill="#f0c36b" opacity="0.53"/>
<circle cx="520" cy="264" r="0.8" fill="#f0c36b" opacity="0.36"/>
<circle cx="581" cy="361" r="1.1" fill="#f0c36b" opacity="0.75"/>
<circle cx="642" cy="8" r="1.5" fill="#f0c36b" opacity="0.58"/>
<circle cx="703" cy="105" r="0.8" fill="#f0c36b" opacity="0.42"/>
<circle cx="764" cy="202" r="1.1" fill="#f0c36b" opacity="0.25"/>
<circle cx="25" cy="299" r="1.5" fill="#f0c36b" opacity="0.64"/>
<circle cx="86" cy="396" r="0.8" fill="#f0c36b" opacity="0.47"/>
<circle cx="147" cy="43" r="1.1" fill="#f0c36b" opacity="0.31"/>
<circle cx="208" cy="140" r="1.5" fill="#f0c36b" opacity="0.69"/>
<circle cx="269" cy="237" r="0.8" fill="#f0c36b" opacity="0.53"/>
<circle cx="330" cy="334" r="1.1" fill="#f0c36b" opacity="0.36"/>
<circle cx="391" cy="431" r="1.5" fill="#f0c36b" opacity="0.75"/>
<circle cx="452" cy="78" r="0.8" fill="#f0c36b" opacity="0.58"/>
<circle cx="513" cy="175" r="1.1" fill="#f0c36b" opacity="0.42"/>
<circle cx="574" cy="272" r="1.5" fill="#f0c36b" opacity="0.25"/>
<circle cx="635" cy="369" r="0.8" fill="#f0c36b" opacity="0.64"/>
<circle cx="696" cy="16" r="1.1" fill="#f0c36b" opacity="0.47"/>
<circle cx="757" cy="113" r="1.5" fill="#f0c36b" opacity="0.31"/>
<circle cx="18" cy="210" r="0.8" fill="#f0c36b" opacity="0.69"/>
<circle cx="79" cy="307" r="1.1" fill="#f0c36b" opacity="0.53"/>
<circle cx="140" cy="404" r="1.5" fill="#f0c36b" opacity="0.36"/>
<circle cx="201" cy="51" r="0.8" fill="#f0c36b" opacity="0.75"/>
<circle cx="262" cy="148" r="1.1" fill="#f0c36b" opacity="0.58"/>
<circle cx="323" cy="245" r="1.5" fill="#f0c36b" opacity="0.42"/>
<circle cx="384" cy="342" r="0.8" fill="#f0c36b" opacity="0.25"/>
<circle cx="445" cy="439" r="1.1" fill="#f0c36b" opacity="0.64"/>
<circle cx="506" cy="86" r="1.5" fill="#f0c36b" opacity="0.47"/>
<circle cx="567" cy="183" r="0.8" fill="#f0c36b" opacity="0.31"/>
<circle cx="628" cy="280" r="1.1" fill="#f0c36b" opacity="0.69"/>
<circle cx="689" cy="377" r="1.5" fill="#f0c36b" opacity="0.53"/>
<circle cx="750" cy="24" r="0.8" fill="#f0c36b" opacity="0.36"/>
<circle cx="11" cy="121" r="1.1" fill="#f0c36b" opacity="0.75"/>
<circle cx="72" cy="218" r="1.5" fill="#f0c36b" opacity="0.58"/>
<circle cx="133" cy="315" r="0.8" fill="#f0c36b" opacity="0.42"/>
<circle cx="194" cy="412" r="1.1" fill="#f0c36b" opacity="0.25"/>
<circle cx="255" cy="59" r="1.5" fill="#f0c36b" opacity="0.64"/>
<circle cx="316" cy="156" r="0.8" fill="#f0c36b" opacity="0.47"/>
<circle cx="377" cy="253" r="1.1" fill="#f0c36b" opacity="0.31"/>
<circle cx="438" cy="350" r="1.5" fill="#f0c36b" opacity="0.69"/>
<circle cx="499" cy="447" r="0.8" fill="#f0c36b" opacity="0.53"/>
<circle cx="560" cy="94" r="1.1" fill="#f0c36b" opacity="0.36"/>
<circle cx="621" cy="191" r="1.5" fill="#f0c36b" opacity="0.75"/>
<circle cx="682" cy="288" r="0.8" fill="#f0c36b" opacity="0.58"/>
<circle cx="743" cy="385" r="1.1" fill="#f0c36b" opacity="0.42"/>
<circle cx="4" cy="32" r="1.5" fill="#f0c36b" opacity="0.25"/>
<circle cx="65" cy="129" r="0.8" fill="#f0c36b" opacity="0.64"/>
<circle cx="126" cy="226" r="1.1" fill="#f0c36b" opacity="0.47"/>
<circle cx="187" cy="323" r="1.5" fill="#f0c36b" opacity="0.31"/>
<circle cx="248" cy="420" r="0.8" fill="#f0c36b" opacity="0.69"/>
<circle cx="309" cy="67" r="1.1" fill="#f0c36b" opacity="0.53"/>
<circle cx="370" cy="164" r="1.5" fill="#f0c36b" opacity="0.36"/>
<circle cx="431" cy="261" r="0.8" fill="#f0c36b" opacity="0.75"/>
  <circle cx="400" cy="245" r="132" fill="none" stroke="#f0b15c" stroke-width="8" opacity="0.55"/>
  <circle cx="400" cy="245" r="144" fill="none" stroke="#ffe0a8" stroke-width="1.5" opacity="0.62"/>
  <circle cx="400" cy="245" r="116" fill="none" stroke="#ff7a2a" stroke-width="1" opacity="0.28"/>
  
        <ellipse cx="400" cy="245" rx="92" ry="34" fill="none" stroke="#ffd88d" stroke-width="4" opacity="0.75" transform="rotate(-28 400 245)"/>
        <ellipse cx="400" cy="245" rx="60" ry="20" fill="#ffd88d" opacity="0.25" transform="rotate(-28 400 245)"/>
        
  <circle cx="280" cy="155" r="10" fill="#fff6d7" opacity="0.98"/><circle cx="280" cy="155" r="25" fill="url(#glow)" opacity="0.45"/>
<circle cx="528" cy="161" r="10" fill="#fff6d7" opacity="0.98"/><circle cx="528" cy="161" r="25" fill="url(#glow)" opacity="0.45"/>
<circle cx="300" cy="345" r="10" fill="#fff6d7" opacity="0.98"/><circle cx="300" cy="345" r="25" fill="url(#glow)" opacity="0.45"/>
<circle cx="522" cy="341" r="10" fill="#fff6d7" opacity="0.98"/><circle cx="522" cy="341" r="25" fill="url(#glow)" opacity="0.45"/>
  <rect x="34" y="320" width="732" height="84" rx="20" fill="#020202" opacity="0.64" stroke="#d7a64a" stroke-width="1"/>
  <text x="60" y="356" fill="#ffe8b6" font-size="30" font-family="serif" font-weight="700">B1608+656</text>
  <text x="60" y="386" fill="#c7a15a" font-size="18" font-family="serif">Lensed QSO · Quadruply imaged radio source</text>
</svg>