<svg xmlns="http://www.w3.org/2000/svg" width="800" height="450" viewBox="0 0 800 450" role="img" aria-label="DES J0408−5354">
  <defs>
    <radialGradient id="bg" cx="50%" cy="50%" r="80%">
      <stop offset="0%" stop-color="#211207"/>
      <stop offset="42%" stop-color="#0b0a0b"/>
      <stop offset="100%" stop-color="#000000"/>
    </radialGradient>
    <radialGradient id="glow" cx="50%" cy="50%" r="50%">
      <stop offset="0%" stop-color="#ffffff" stop-opacity="1"/>
      <stop offset="35%" stop-color="#ffd88d" stop-opacity="0.76"/>
      <stop offset="100%" stop-color="#ff8a00" stop-opacity="0"/>
    </radialGradient>
    <filter id="blur"><feGaussianBlur stdDeviation="1.2"/></filter>
  </defs>
  <rect width="800" height="450" fill="url(#bg)"/>
  <circle cx="37" cy="53" r="1.1" fill="#f0c36b" opacity="0.31"/>
<circle cx="98" cy="150" r="1.5" fill="#f0c36b" opacity="0.69"/>
<circle cx="159" cy="247" r="0.8" fill="#f0c36b" opacity="0.53"/>
<circle cx="220" cy="344" r="1.1" fill="#f0c36b" opacity="0.36"/>
<circle cx="281" cy="441" r="1.5" fill="#f0c36b" opacity="0.75"/>
<circle cx="342" cy="88" r="0.8" fill="#f0c36b" opacity="0.58"/>
<circle cx="403" cy="185" r="1.1" fill="#f0c36b" opacity="0.42"/>
<circle cx="464" cy="282" r="1.5" fill="#f0c36b" opacity="0.25"/>
<circle cx="525" cy="379" r="0.8" fill="#f0c36b" opacity="0.64"/>
<circle cx="586" cy="26" r="1.1" fill="#f0c36b" opacity="0.47"/>
<circle cx="647" cy="123" r="1.5" fill="#f0c36b" opacity="0.31"/>
<circle cx="708" cy="220" r="0.8" fill="#f0c36b" opacity="0.69"/>
<circle cx="769" cy="317" r="1.1" fill="#f0c36b" opacity="0.53"/>
<circle cx="30" cy="414" r="1.5" fill="#f0c36b" opacity="0.36"/>
<circle cx="91" cy="61" r="0.8" fill="#f0c36b" opacity="0.75"/>
<circle cx="152" cy="158" r="1.1" fill="#f0c36b" opacity="0.58"/>
<circle cx="213" cy="255" r="1.5" fill="#f0c36b" opacity="0.42"/>
<circle cx="274" cy="352" r="0.8" fill="#f0c36b" opacity="0.25"/>
<circle cx="335" cy="449" r="1.1" fill="#f0c36b" opacity="0.64"/>
<circle cx="396" cy="96" r="1.5" fill="#f0c36b" opacity="0.47"/>
<circle cx="457" cy="193" r="0.8" fill="#f0c36b" opacity="0.31"/>
<circle cx="518" cy="290" r="1.1" fill="#f0c36b" opacity="0.69"/>
<circle cx="579" cy="387" r="1.5" fill="#f0c36b" opacity="0.53"/>
<circle cx="640" cy="34" r="0.8" fill="#f0c36b" opacity="0.36"/>
<circle cx="701" cy="131" r="1.1" fill="#f0c36b" opacity="0.75"/>
<circle cx="762" cy="228" r="1.5" fill="#f0c36b" opacity="0.58"/>
<circle cx="23" cy="325" r="0.8" fill="#f0c36b" opacity="0.42"/>
<circle cx="84" cy="422" r="1.1" fill="#f0c36b" opacity="0.25"/>
<circle cx="145" cy="69" r="1.5" fill="#f0c36b" opacity="0.64"/>
<circle cx="206" cy="166" r="0.8" fill="#f0c36b" opacity="0.47"/>
<circle cx="267" cy="263" r="1.1" fill="#f0c36b" opacity="0.31"/>
<circle cx="328" cy="360" r="1.5" fill="#f0c36b" opacity="0.69"/>
<circle cx="389" cy="7" r="0.8" fill="#f0c36b" opacity="0.53"/>
<circle cx="450" cy="104" r="1.1" fill="#f0c36b" opacity="0.36"/>
<circle cx="511" cy="201" r="1.5" fill="#f0c36b" opacity="0.75"/>
<circle cx="572" cy="298" r="0.8" fill="#f0c36b" opacity="0.58"/>
<circle cx="633" cy="395" r="1.1" fill="#f0c36b" opacity="0.42"/>
<circle cx="694" cy="42" r="1.5" fill="#f0c36b" opacity="0.25"/>
<circle cx="755" cy="139" r="0.8" fill="#f0c36b" opacity="0.64"/>
<circle cx="16" cy="236" r="1.1" fill="#f0c36b" opacity="0.47"/>
<circle cx="77" cy="333" r="1.5" fill="#f0c36b" opacity="0.31"/>
<circle cx="138" cy="430" r="0.8" fill="#f0c36b" opacity="0.69"/>
<circle cx="199" cy="77" r="1.1" fill="#f0c36b" opacity="0.53"/>
<circle cx="260" cy="174" r="1.5" fill="#f0c36b" opacity="0.36"/>
<circle cx="321" cy="271" r="0.8" fill="#f0c36b" opacity="0.75"/>
<circle cx="382" cy="368" r="1.1" fill="#f0c36b" opacity="0.58"/>
<circle cx="443" cy="15" r="1.5" fill="#f0c36b" opacity="0.42"/>
<circle cx="504" cy="112" r="0.8" fill="#f0c36b" opacity="0.25"/>
<circle cx="565" cy="209" r="1.1" fill="#f0c36b" opacity="0.64"/>
<circle cx="626" cy="306" r="1.5" fill="#f0c36b" opacity="0.47"/>
<circle cx="687" cy="403" r="0.8" fill="#f0c36b" opacity="0.31"/>
<circle cx="748" cy="50" r="1.1" fill="#f0c36b" opacity="0.69"/>
<circle cx="9" cy="147" r="1.5" fill="#f0c36b" opacity="0.53"/>
<circle cx="70" cy="244" r="0.8" fill="#f0c36b" opacity="0.36"/>
<circle cx="131" cy="341" r="1.1" fill="#f0c36b" opacity="0.75"/>
<circle cx="192" cy="438" r="1.5" fill="#f0c36b" opacity="0.58"/>
<circle cx="253" cy="85" r="0.8" fill="#f0c36b" opacity="0.42"/>
<circle cx="314" cy="182" r="1.1" fill="#f0c36b" opacity="0.25"/>
<circle cx="375" cy="279" r="1.5" fill="#f0c36b" opacity="0.64"/>
<circle cx="436" cy="376" r="0.8" fill="#f0c36b" opacity="0.47"/>
<circle cx="497" cy="23" r="1.1" fill="#f0c36b" opacity="0.31"/>
<circle cx="558" cy="120" r="1.5" fill="#f0c36b" opacity="0.69"/>
<circle cx="619" cy="217" r="0.8" fill="#f0c36b" opacity="0.53"/>
<circle cx="680" cy="314" r="1.1" fill="#f0c36b" opacity="0.36"/>
<circle cx="741" cy="411" r="1.5" fill="#f0c36b" opacity="0.75"/>
<circle cx="2" cy="58" r="0.8" fill="#f0c36b" opacity="0.58"/>
<circle cx="63" cy="155" r="1.1" fill="#f0c36b" opacity="0.42"/>
<circle cx="124" cy="252" r="1.5" fill="#f0c36b" opacity="0.25"/>
<circle cx="185" cy="349" r="0.8" fill="#f0c36b" opacity="0.64"/>
<circle cx="246" cy="446" r="1.1" fill="#f0c36b" opacity="0.47"/>
  <circle cx="400" cy="245" r="132" fill="none" stroke="#f0b15c" stroke-width="8" opacity="0.55"/>
  <circle cx="400" cy="245" r="144" fill="none" stroke="#ffe0a8" stroke-width="1.5" opacity="0.62"/>
  <circle cx="400" cy="245" r="116" fill="none" stroke="#ff7a2a" stroke-width="1" opacity="0.28"/>
  
        <ellipse cx="400" cy="245" rx="92" ry="34" fill="none" stroke="#ffd88d" stroke-width="4" opacity="0.75" transform="rotate(-28 400 245)"/>
        <ellipse cx="400" cy="245" rx="60" ry="20" fill="#ffd88d" opacity="0.25" transform="rotate(-28 400 245)"/>
        
  <circle cx="280" cy="155" r="10" fill="#fff6d7" opacity="0.98"/><circle cx="280" cy="155" r="25" fill="url(#glow)" opacity="0.45"/>
<circle cx="528" cy="161" r="10" fill="#fff6d7" opacity="0.98"/><circle cx="528" cy="161" r="25" fill="url(#glow)" opacity="0.45"/>
<circle cx="300" cy="345" r="10" fill="#fff6d7" opacity="0.98"/><circle cx="300" cy="345" r="25" fill="url(#glow)" opacity="0.45"/>
<circle cx="522" cy="341" r="10" fill="#fff6d7" opacity="0.98"/><circle cx="522" cy="341" r="25" fill="url(#glow)" opacity="0.45"/>
  <rect x="34" y="320" width="732" height="84" rx="20" fill="#020202" opacity="0.64" stroke="#d7a64a" stroke-width="1"/>
  <text x="60" y="356" fill="#ffe8b6" font-size="30" font-family="serif" font-weight="700">DES J0408−5354</text>
  <text x="60" y="386" fill="#c7a15a" font-size="18" font-family="serif">Lensed QSO · Quadruply imaged quasar</text>
</svg>