<svg xmlns="http://www.w3.org/2000/svg" width="800" height="450" viewBox="0 0 800 450" role="img" aria-label="HE 0435−1223">
  <defs>
    <radialGradient id="bg" cx="50%" cy="50%" r="80%">
      <stop offset="0%" stop-color="#211207"/>
      <stop offset="42%" stop-color="#0b0a0b"/>
      <stop offset="100%" stop-color="#000000"/>
    </radialGradient>
    <radialGradient id="glow" cx="50%" cy="50%" r="50%">
      <stop offset="0%" stop-color="#ffffff" stop-opacity="1"/>
      <stop offset="35%" stop-color="#ffd88d" stop-opacity="0.76"/>
      <stop offset="100%" stop-color="#ff8a00" stop-opacity="0"/>
    </radialGradient>
    <filter id="blur"><feGaussianBlur stdDeviation="1.2"/></filter>
  </defs>
  <rect width="800" height="450" fill="url(#bg)"/>
  <circle cx="74" cy="106" r="1.5" fill="#f0c36b" opacity="0.36"/>
<circle cx="135" cy="203" r="0.8" fill="#f0c36b" opacity="0.75"/>
<circle cx="196" cy="300" r="1.1" fill="#f0c36b" opacity="0.58"/>
<circle cx="257" cy="397" r="1.5" fill="#f0c36b" opacity="0.42"/>
<circle cx="318" cy="44" r="0.8" fill="#f0c36b" opacity="0.25"/>
<circle cx="379" cy="141" r="1.1" fill="#f0c36b" opacity="0.64"/>
<circle cx="440" cy="238" r="1.5" fill="#f0c36b" opacity="0.47"/>
<circle cx="501" cy="335" r="0.8" fill="#f0c36b" opacity="0.31"/>
<circle cx="562" cy="432" r="1.1" fill="#f0c36b" opacity="0.69"/>
<circle cx="623" cy="79" r="1.5" fill="#f0c36b" opacity="0.53"/>
<circle cx="684" cy="176" r="0.8" fill="#f0c36b" opacity="0.36"/>
<circle cx="745" cy="273" r="1.1" fill="#f0c36b" opacity="0.75"/>
<circle cx="6" cy="370" r="1.5" fill="#f0c36b" opacity="0.58"/>
<circle cx="67" cy="17" r="0.8" fill="#f0c36b" opacity="0.42"/>
<circle cx="128" cy="114" r="1.1" fill="#f0c36b" opacity="0.25"/>
<circle cx="189" cy="211" r="1.5" fill="#f0c36b" opacity="0.64"/>
<circle cx="250" cy="308" r="0.8" fill="#f0c36b" opacity="0.47"/>
<circle cx="311" cy="405" r="1.1" fill="#f0c36b" opacity="0.31"/>
<circle cx="372" cy="52" r="1.5" fill="#f0c36b" opacity="0.69"/>
<circle cx="433" cy="149" r="0.8" fill="#f0c36b" opacity="0.53"/>
<circle cx="494" cy="246" r="1.1" fill="#f0c36b" opacity="0.36"/>
<circle cx="555" cy="343" r="1.5" fill="#f0c36b" opacity="0.75"/>
<circle cx="616" cy="440" r="0.8" fill="#f0c36b" opacity="0.58"/>
<circle cx="677" cy="87" r="1.1" fill="#f0c36b" opacity="0.42"/>
<circle cx="738" cy="184" r="1.5" fill="#f0c36b" opacity="0.25"/>
<circle cx="799" cy="281" r="0.8" fill="#f0c36b" opacity="0.64"/>
<circle cx="60" cy="378" r="1.1" fill="#f0c36b" opacity="0.47"/>
<circle cx="121" cy="25" r="1.5" fill="#f0c36b" opacity="0.31"/>
<circle cx="182" cy="122" r="0.8" fill="#f0c36b" opacity="0.69"/>
<circle cx="243" cy="219" r="1.1" fill="#f0c36b" opacity="0.53"/>
<circle cx="304" cy="316" r="1.5" fill="#f0c36b" opacity="0.36"/>
<circle cx="365" cy="413" r="0.8" fill="#f0c36b" opacity="0.75"/>
<circle cx="426" cy="60" r="1.1" fill="#f0c36b" opacity="0.58"/>
<circle cx="487" cy="157" r="1.5" fill="#f0c36b" opacity="0.42"/>
<circle cx="548" cy="254" r="0.8" fill="#f0c36b" opacity="0.25"/>
<circle cx="609" cy="351" r="1.1" fill="#f0c36b" opacity="0.64"/>
<circle cx="670" cy="448" r="1.5" fill="#f0c36b" opacity="0.47"/>
<circle cx="731" cy="95" r="0.8" fill="#f0c36b" opacity="0.31"/>
<circle cx="792" cy="192" r="1.1" fill="#f0c36b" opacity="0.69"/>
<circle cx="53" cy="289" r="1.5" fill="#f0c36b" opacity="0.53"/>
<circle cx="114" cy="386" r="0.8" fill="#f0c36b" opacity="0.36"/>
<circle cx="175" cy="33" r="1.1" fill="#f0c36b" opacity="0.75"/>
<circle cx="236" cy="130" r="1.5" fill="#f0c36b" opacity="0.58"/>
<circle cx="297" cy="227" r="0.8" fill="#f0c36b" opacity="0.42"/>
<circle cx="358" cy="324" r="1.1" fill="#f0c36b" opacity="0.25"/>
<circle cx="419" cy="421" r="1.5" fill="#f0c36b" opacity="0.64"/>
<circle cx="480" cy="68" r="0.8" fill="#f0c36b" opacity="0.47"/>
<circle cx="541" cy="165" r="1.1" fill="#f0c36b" opacity="0.31"/>
<circle cx="602" cy="262" r="1.5" fill="#f0c36b" opacity="0.69"/>
<circle cx="663" cy="359" r="0.8" fill="#f0c36b" opacity="0.53"/>
<circle cx="724" cy="6" r="1.1" fill="#f0c36b" opacity="0.36"/>
<circle cx="785" cy="103" r="1.5" fill="#f0c36b" opacity="0.75"/>
<circle cx="46" cy="200" r="0.8" fill="#f0c36b" opacity="0.58"/>
<circle cx="107" cy="297" r="1.1" fill="#f0c36b" opacity="0.42"/>
<circle cx="168" cy="394" r="1.5" fill="#f0c36b" opacity="0.25"/>
<circle cx="229" cy="41" r="0.8" fill="#f0c36b" opacity="0.64"/>
<circle cx="290" cy="138" r="1.1" fill="#f0c36b" opacity="0.47"/>
<circle cx="351" cy="235" r="1.5" fill="#f0c36b" opacity="0.31"/>
<circle cx="412" cy="332" r="0.8" fill="#f0c36b" opacity="0.69"/>
<circle cx="473" cy="429" r="1.1" fill="#f0c36b" opacity="0.53"/>
<circle cx="534" cy="76" r="1.5" fill="#f0c36b" opacity="0.36"/>
<circle cx="595" cy="173" r="0.8" fill="#f0c36b" opacity="0.75"/>
<circle cx="656" cy="270" r="1.1" fill="#f0c36b" opacity="0.58"/>
<circle cx="717" cy="367" r="1.5" fill="#f0c36b" opacity="0.42"/>
<circle cx="778" cy="14" r="0.8" fill="#f0c36b" opacity="0.25"/>
<circle cx="39" cy="111" r="1.1" fill="#f0c36b" opacity="0.64"/>
<circle cx="100" cy="208" r="1.5" fill="#f0c36b" opacity="0.47"/>
<circle cx="161" cy="305" r="0.8" fill="#f0c36b" opacity="0.31"/>
<circle cx="222" cy="402" r="1.1" fill="#f0c36b" opacity="0.69"/>
<circle cx="283" cy="49" r="1.5" fill="#f0c36b" opacity="0.53"/>
  <circle cx="400" cy="245" r="132" fill="none" stroke="#f0b15c" stroke-width="8" opacity="0.55"/>
  <circle cx="400" cy="245" r="144" fill="none" stroke="#ffe0a8" stroke-width="1.5" opacity="0.62"/>
  <circle cx="400" cy="245" r="116" fill="none" stroke="#ff7a2a" stroke-width="1" opacity="0.28"/>
  
        <ellipse cx="400" cy="245" rx="92" ry="34" fill="none" stroke="#ffd88d" stroke-width="4" opacity="0.75" transform="rotate(-28 400 245)"/>
        <ellipse cx="400" cy="245" rx="60" ry="20" fill="#ffd88d" opacity="0.25" transform="rotate(-28 400 245)"/>
        
  <circle cx="280" cy="155" r="10" fill="#fff6d7" opacity="0.98"/><circle cx="280" cy="155" r="25" fill="url(#glow)" opacity="0.45"/>
<circle cx="528" cy="161" r="10" fill="#fff6d7" opacity="0.98"/><circle cx="528" cy="161" r="25" fill="url(#glow)" opacity="0.45"/>
<circle cx="300" cy="345" r="10" fill="#fff6d7" opacity="0.98"/><circle cx="300" cy="345" r="25" fill="url(#glow)" opacity="0.45"/>
<circle cx="522" cy="341" r="10" fill="#fff6d7" opacity="0.98"/><circle cx="522" cy="341" r="25" fill="url(#glow)" opacity="0.45"/>
  <rect x="34" y="320" width="732" height="84" rx="20" fill="#020202" opacity="0.64" stroke="#d7a64a" stroke-width="1"/>
  <text x="60" y="356" fill="#ffe8b6" font-size="30" font-family="serif" font-weight="700">HE 0435−1223</text>
  <text x="60" y="386" fill="#c7a15a" font-size="18" font-family="serif">Lensed QSO · Quadruply imaged quasar</text>
</svg>