<svg xmlns="http://www.w3.org/2000/svg" width="800" height="450" viewBox="0 0 800 450" role="img" aria-label="iPTF16geu / SN 2016geu">
  <defs>
    <radialGradient id="bg" cx="50%" cy="50%" r="80%">
      <stop offset="0%" stop-color="#211207"/>
      <stop offset="42%" stop-color="#0b0a0b"/>
      <stop offset="100%" stop-color="#000000"/>
    </radialGradient>
    <radialGradient id="glow" cx="50%" cy="50%" r="50%">
      <stop offset="0%" stop-color="#ffffff" stop-opacity="1"/>
      <stop offset="35%" stop-color="#ffd88d" stop-opacity="0.76"/>
      <stop offset="100%" stop-color="#ff8a00" stop-opacity="0"/>
    </radialGradient>
    <filter id="blur"><feGaussianBlur stdDeviation="1.2"/></filter>
  </defs>
  <rect width="800" height="450" fill="url(#bg)"/>
  <circle cx="333" cy="27" r="0.8" fill="#f0c36b" opacity="0.75"/>
<circle cx="394" cy="124" r="1.1" fill="#f0c36b" opacity="0.58"/>
<circle cx="455" cy="221" r="1.5" fill="#f0c36b" opacity="0.42"/>
<circle cx="516" cy="318" r="0.8" fill="#f0c36b" opacity="0.25"/>
<circle cx="577" cy="415" r="1.1" fill="#f0c36b" opacity="0.64"/>
<circle cx="638" cy="62" r="1.5" fill="#f0c36b" opacity="0.47"/>
<circle cx="699" cy="159" r="0.8" fill="#f0c36b" opacity="0.31"/>
<circle cx="760" cy="256" r="1.1" fill="#f0c36b" opacity="0.69"/>
<circle cx="21" cy="353" r="1.5" fill="#f0c36b" opacity="0.53"/>
<circle cx="82" cy="0" r="0.8" fill="#f0c36b" opacity="0.36"/>
<circle cx="143" cy="97" r="1.1" fill="#f0c36b" opacity="0.75"/>
<circle cx="204" cy="194" r="1.5" fill="#f0c36b" opacity="0.58"/>
<circle cx="265" cy="291" r="0.8" fill="#f0c36b" opacity="0.42"/>
<circle cx="326" cy="388" r="1.1" fill="#f0c36b" opacity="0.25"/>
<circle cx="387" cy="35" r="1.5" fill="#f0c36b" opacity="0.64"/>
<circle cx="448" cy="132" r="0.8" fill="#f0c36b" opacity="0.47"/>
<circle cx="509" cy="229" r="1.1" fill="#f0c36b" opacity="0.31"/>
<circle cx="570" cy="326" r="1.5" fill="#f0c36b" opacity="0.69"/>
<circle cx="631" cy="423" r="0.8" fill="#f0c36b" opacity="0.53"/>
<circle cx="692" cy="70" r="1.1" fill="#f0c36b" opacity="0.36"/>
<circle cx="753" cy="167" r="1.5" fill="#f0c36b" opacity="0.75"/>
<circle cx="14" cy="264" r="0.8" fill="#f0c36b" opacity="0.58"/>
<circle cx="75" cy="361" r="1.1" fill="#f0c36b" opacity="0.42"/>
<circle cx="136" cy="8" r="1.5" fill="#f0c36b" opacity="0.25"/>
<circle cx="197" cy="105" r="0.8" fill="#f0c36b" opacity="0.64"/>
<circle cx="258" cy="202" r="1.1" fill="#f0c36b" opacity="0.47"/>
<circle cx="319" cy="299" r="1.5" fill="#f0c36b" opacity="0.31"/>
<circle cx="380" cy="396" r="0.8" fill="#f0c36b" opacity="0.69"/>
<circle cx="441" cy="43" r="1.1" fill="#f0c36b" opacity="0.53"/>
<circle cx="502" cy="140" r="1.5" fill="#f0c36b" opacity="0.36"/>
<circle cx="563" cy="237" r="0.8" fill="#f0c36b" opacity="0.75"/>
<circle cx="624" cy="334" r="1.1" fill="#f0c36b" opacity="0.58"/>
<circle cx="685" cy="431" r="1.5" fill="#f0c36b" opacity="0.42"/>
<circle cx="746" cy="78" r="0.8" fill="#f0c36b" opacity="0.25"/>
<circle cx="7" cy="175" r="1.1" fill="#f0c36b" opacity="0.64"/>
<circle cx="68" cy="272" r="1.5" fill="#f0c36b" opacity="0.47"/>
<circle cx="129" cy="369" r="0.8" fill="#f0c36b" opacity="0.31"/>
<circle cx="190" cy="16" r="1.1" fill="#f0c36b" opacity="0.69"/>
<circle cx="251" cy="113" r="1.5" fill="#f0c36b" opacity="0.53"/>
<circle cx="312" cy="210" r="0.8" fill="#f0c36b" opacity="0.36"/>
<circle cx="373" cy="307" r="1.1" fill="#f0c36b" opacity="0.75"/>
<circle cx="434" cy="404" r="1.5" fill="#f0c36b" opacity="0.58"/>
<circle cx="495" cy="51" r="0.8" fill="#f0c36b" opacity="0.42"/>
<circle cx="556" cy="148" r="1.1" fill="#f0c36b" opacity="0.25"/>
<circle cx="617" cy="245" r="1.5" fill="#f0c36b" opacity="0.64"/>
<circle cx="678" cy="342" r="0.8" fill="#f0c36b" opacity="0.47"/>
<circle cx="739" cy="439" r="1.1" fill="#f0c36b" opacity="0.31"/>
<circle cx="0" cy="86" r="1.5" fill="#f0c36b" opacity="0.69"/>
<circle cx="61" cy="183" r="0.8" fill="#f0c36b" opacity="0.53"/>
<circle cx="122" cy="280" r="1.1" fill="#f0c36b" opacity="0.36"/>
<circle cx="183" cy="377" r="1.5" fill="#f0c36b" opacity="0.75"/>
<circle cx="244" cy="24" r="0.8" fill="#f0c36b" opacity="0.58"/>
<circle cx="305" cy="121" r="1.1" fill="#f0c36b" opacity="0.42"/>
<circle cx="366" cy="218" r="1.5" fill="#f0c36b" opacity="0.25"/>
<circle cx="427" cy="315" r="0.8" fill="#f0c36b" opacity="0.64"/>
<circle cx="488" cy="412" r="1.1" fill="#f0c36b" opacity="0.47"/>
<circle cx="549" cy="59" r="1.5" fill="#f0c36b" opacity="0.31"/>
<circle cx="610" cy="156" r="0.8" fill="#f0c36b" opacity="0.69"/>
<circle cx="671" cy="253" r="1.1" fill="#f0c36b" opacity="0.53"/>
<circle cx="732" cy="350" r="1.5" fill="#f0c36b" opacity="0.36"/>
<circle cx="793" cy="447" r="0.8" fill="#f0c36b" opacity="0.75"/>
<circle cx="54" cy="94" r="1.1" fill="#f0c36b" opacity="0.58"/>
<circle cx="115" cy="191" r="1.5" fill="#f0c36b" opacity="0.42"/>
<circle cx="176" cy="288" r="0.8" fill="#f0c36b" opacity="0.25"/>
<circle cx="237" cy="385" r="1.1" fill="#f0c36b" opacity="0.64"/>
<circle cx="298" cy="32" r="1.5" fill="#f0c36b" opacity="0.47"/>
<circle cx="359" cy="129" r="0.8" fill="#f0c36b" opacity="0.31"/>
<circle cx="420" cy="226" r="1.1" fill="#f0c36b" opacity="0.69"/>
<circle cx="481" cy="323" r="1.5" fill="#f0c36b" opacity="0.53"/>
<circle cx="542" cy="420" r="0.8" fill="#f0c36b" opacity="0.36"/>
  <circle cx="400" cy="245" r="118" fill="none" stroke="#f0b15c" stroke-width="8" opacity="0.55"/>
  <circle cx="400" cy="245" r="130" fill="none" stroke="#ffe0a8" stroke-width="1.5" opacity="0.62"/>
  <circle cx="400" cy="245" r="102" fill="none" stroke="#ff7a2a" stroke-width="1" opacity="0.28"/>
  
        <path d="M330 245 C360 198 430 198 470 245 C430 292 360 292 330 245 Z" fill="none" stroke="#f0c36b" stroke-width="2" opacity="0.5"/>
        <path d="M400 185 L408 234 L456 245 L408 256 L400 305 L392 256 L344 245 L392 234 Z" fill="#fff8e8" opacity="0.84"/>
        
  <circle cx="280" cy="155" r="12" fill="#fff6d7" opacity="0.98"/><circle cx="280" cy="155" r="30" fill="url(#glow)" opacity="0.45"/>
<circle cx="528" cy="161" r="12" fill="#fff6d7" opacity="0.98"/><circle cx="528" cy="161" r="30" fill="url(#glow)" opacity="0.45"/>
<circle cx="300" cy="345" r="12" fill="#fff6d7" opacity="0.98"/><circle cx="300" cy="345" r="30" fill="url(#glow)" opacity="0.45"/>
<circle cx="522" cy="341" r="12" fill="#fff6d7" opacity="0.98"/><circle cx="522" cy="341" r="30" fill="url(#glow)" opacity="0.45"/>
  <rect x="34" y="320" width="732" height="84" rx="20" fill="#020202" opacity="0.64" stroke="#d7a64a" stroke-width="1"/>
  <text x="60" y="356" fill="#ffe8b6" font-size="30" font-family="serif" font-weight="700">iPTF16geu / SN 2016geu</text>
  <text x="60" y="386" fill="#c7a15a" font-size="18" font-family="serif">Lensed SN · Type Ia supernova</text>
</svg>