<svg xmlns="http://www.w3.org/2000/svg" width="800" height="450" viewBox="0 0 800 450" role="img" aria-label="Lensed supernova candidate">
  <defs>
    <radialGradient id="bg" cx="50%" cy="50%" r="80%">
      <stop offset="0%" stop-color="#211207"/>
      <stop offset="42%" stop-color="#0b0a0b"/>
      <stop offset="100%" stop-color="#000000"/>
    </radialGradient>
    <radialGradient id="glow" cx="50%" cy="50%" r="50%">
      <stop offset="0%" stop-color="#ffffff" stop-opacity="1"/>
      <stop offset="35%" stop-color="#ffd88d" stop-opacity="0.76"/>
      <stop offset="100%" stop-color="#ff8a00" stop-opacity="0"/>
    </radialGradient>
    <filter id="blur"><feGaussianBlur stdDeviation="1.2"/></filter>
  </defs>
  <rect width="800" height="450" fill="url(#bg)"/>
  <circle cx="46" cy="48" r="1.1" fill="#f0c36b" opacity="0.31"/>
  <circle cx="107" cy="145" r="1.5" fill="#f0c36b" opacity="0.69"/>
  <circle cx="168" cy="242" r="0.8" fill="#f0c36b" opacity="0.53"/>
  <circle cx="229" cy="339" r="1.1" fill="#f0c36b" opacity="0.36"/>
  <circle cx="290" cy="436" r="1.5" fill="#f0c36b" opacity="0.75"/>
  <circle cx="351" cy="83" r="0.8" fill="#f0c36b" opacity="0.58"/>
  <circle cx="412" cy="180" r="1.1" fill="#f0c36b" opacity="0.42"/>
  <circle cx="473" cy="277" r="1.5" fill="#f0c36b" opacity="0.25"/>
  <circle cx="534" cy="374" r="0.8" fill="#f0c36b" opacity="0.64"/>
  <circle cx="595" cy="21" r="1.1" fill="#f0c36b" opacity="0.47"/>
  <circle cx="656" cy="118" r="1.5" fill="#f0c36b" opacity="0.31"/>
  <circle cx="717" cy="215" r="0.8" fill="#f0c36b" opacity="0.69"/>
  <circle cx="778" cy="312" r="1.1" fill="#f0c36b" opacity="0.53"/>
  <circle cx="39" cy="409" r="1.5" fill="#f0c36b" opacity="0.36"/>
  <circle cx="100" cy="56" r="0.8" fill="#f0c36b" opacity="0.75"/>
  <circle cx="161" cy="153" r="1.1" fill="#f0c36b" opacity="0.58"/>
  <circle cx="222" cy="250" r="1.5" fill="#f0c36b" opacity="0.42"/>
  <circle cx="283" cy="347" r="0.8" fill="#f0c36b" opacity="0.25"/>
  <circle cx="344" cy="444" r="1.1" fill="#f0c36b" opacity="0.64"/>
  <circle cx="405" cy="91" r="1.5" fill="#f0c36b" opacity="0.47"/>
  <circle cx="466" cy="188" r="0.8" fill="#f0c36b" opacity="0.31"/>
  <circle cx="527" cy="285" r="1.1" fill="#f0c36b" opacity="0.69"/>
  <circle cx="588" cy="382" r="1.5" fill="#f0c36b" opacity="0.53"/>
  <circle cx="649" cy="29" r="0.8" fill="#f0c36b" opacity="0.36"/>
  <circle cx="710" cy="126" r="1.1" fill="#f0c36b" opacity="0.75"/>
  <circle cx="771" cy="223" r="1.5" fill="#f0c36b" opacity="0.58"/>
  <circle cx="32" cy="320" r="0.8" fill="#f0c36b" opacity="0.42"/>
  <circle cx="93" cy="417" r="1.1" fill="#f0c36b" opacity="0.25"/>
  <circle cx="154" cy="64" r="1.5" fill="#f0c36b" opacity="0.64"/>
  <circle cx="215" cy="161" r="0.8" fill="#f0c36b" opacity="0.47"/>
  <circle cx="276" cy="258" r="1.1" fill="#f0c36b" opacity="0.31"/>
  <circle cx="337" cy="355" r="1.5" fill="#f0c36b" opacity="0.69"/>
  <circle cx="398" cy="2" r="0.8" fill="#f0c36b" opacity="0.53"/>
  <circle cx="459" cy="99" r="1.1" fill="#f0c36b" opacity="0.36"/>
  <circle cx="520" cy="196" r="1.5" fill="#f0c36b" opacity="0.75"/>
  <circle cx="581" cy="293" r="0.8" fill="#f0c36b" opacity="0.58"/>
  <circle cx="642" cy="390" r="1.1" fill="#f0c36b" opacity="0.42"/>
  <circle cx="703" cy="37" r="1.5" fill="#f0c36b" opacity="0.25"/>
  <circle cx="764" cy="134" r="0.8" fill="#f0c36b" opacity="0.64"/>
  <circle cx="25" cy="231" r="1.1" fill="#f0c36b" opacity="0.47"/>
  <circle cx="86" cy="328" r="1.5" fill="#f0c36b" opacity="0.31"/>
  <circle cx="147" cy="425" r="0.8" fill="#f0c36b" opacity="0.69"/>
  <circle cx="208" cy="72" r="1.1" fill="#f0c36b" opacity="0.53"/>
  <circle cx="269" cy="169" r="1.5" fill="#f0c36b" opacity="0.36"/>
  <circle cx="330" cy="266" r="0.8" fill="#f0c36b" opacity="0.75"/>
  <circle cx="391" cy="363" r="1.1" fill="#f0c36b" opacity="0.58"/>
  <circle cx="452" cy="10" r="1.5" fill="#f0c36b" opacity="0.42"/>
  <circle cx="513" cy="107" r="0.8" fill="#f0c36b" opacity="0.25"/>
  <circle cx="574" cy="204" r="1.1" fill="#f0c36b" opacity="0.64"/>
  <circle cx="635" cy="301" r="1.5" fill="#f0c36b" opacity="0.47"/>
  <circle cx="696" cy="398" r="0.8" fill="#f0c36b" opacity="0.31"/>
  <circle cx="757" cy="45" r="1.1" fill="#f0c36b" opacity="0.69"/>
  <circle cx="18" cy="142" r="1.5" fill="#f0c36b" opacity="0.53"/>
  <circle cx="79" cy="239" r="0.8" fill="#f0c36b" opacity="0.36"/>
  <circle cx="140" cy="336" r="1.1" fill="#f0c36b" opacity="0.75"/>
  <circle cx="201" cy="433" r="1.5" fill="#f0c36b" opacity="0.58"/>
  <circle cx="262" cy="80" r="0.8" fill="#f0c36b" opacity="0.42"/>
  <circle cx="323" cy="177" r="1.1" fill="#f0c36b" opacity="0.25"/>
  <circle cx="384" cy="274" r="1.5" fill="#f0c36b" opacity="0.64"/>
  <circle cx="445" cy="371" r="0.8" fill="#f0c36b" opacity="0.47"/>
  <circle cx="506" cy="18" r="1.1" fill="#f0c36b" opacity="0.31"/>
  <circle cx="567" cy="115" r="1.5" fill="#f0c36b" opacity="0.69"/>
  <circle cx="628" cy="212" r="0.8" fill="#f0c36b" opacity="0.53"/>
  <circle cx="689" cy="309" r="1.1" fill="#f0c36b" opacity="0.36"/>
  <circle cx="750" cy="406" r="1.5" fill="#f0c36b" opacity="0.75"/>
  <circle cx="400" cy="245" r="118" fill="none" stroke="#f0b15c" stroke-width="8" opacity="0.55"/>
  <circle cx="400" cy="245" r="130" fill="none" stroke="#ffe0a8" stroke-width="1.5" opacity="0.62"/>
  <circle cx="400" cy="245" r="102" fill="none" stroke="#ff7a2a" stroke-width="1" opacity="0.28"/>
  <path d="M330 245 C360 198 430 198 470 245 C430 292 360 292 330 245 Z" fill="none" stroke="#f0c36b" stroke-width="2" opacity="0.5"/>
  <path d="M400 185 L408 234 L456 245 L408 256 L400 305 L392 256 L344 245 L392 234 Z" fill="#fff8e8" opacity="0.84"/>
  <circle cx="294" cy="156" r="12" fill="#fff6d7" opacity="0.98"/><circle cx="294" cy="156" r="30" fill="url(#glow)" opacity="0.45"/>
  <circle cx="508" cy="166" r="12" fill="#fff6d7" opacity="0.98"/><circle cx="508" cy="166" r="30" fill="url(#glow)" opacity="0.45"/>
  <circle cx="310" cy="342" r="12" fill="#fff6d7" opacity="0.98"/><circle cx="310" cy="342" r="30" fill="url(#glow)" opacity="0.45"/>
  <circle cx="526" cy="336" r="12" fill="#fff6d7" opacity="0.98"/><circle cx="526" cy="336" r="30" fill="url(#glow)" opacity="0.45"/>
  <rect x="34" y="320" width="732" height="84" rx="20" fill="#020202" opacity="0.64" stroke="#d7a64a" stroke-width="1"/>
  <text x="60" y="356" fill="#ffe8b6" font-size="30" font-family="serif" font-weight="700">Lensed SN Candidate</text>
  <text x="60" y="386" fill="#c7a15a" font-size="18" font-family="serif">Lensed SN · multiply imaged transient</text>
</svg>
