<svg xmlns="http://www.w3.org/2000/svg" width="800" height="450" viewBox="0 0 800 450" role="img" aria-label="PG 1115+080">
  <defs>
    <radialGradient id="bg" cx="50%" cy="50%" r="80%">
      <stop offset="0%" stop-color="#211207"/>
      <stop offset="42%" stop-color="#0b0a0b"/>
      <stop offset="100%" stop-color="#000000"/>
    </radialGradient>
    <radialGradient id="glow" cx="50%" cy="50%" r="50%">
      <stop offset="0%" stop-color="#ffffff" stop-opacity="1"/>
      <stop offset="35%" stop-color="#ffd88d" stop-opacity="0.76"/>
      <stop offset="100%" stop-color="#ff8a00" stop-opacity="0"/>
    </radialGradient>
    <filter id="blur"><feGaussianBlur stdDeviation="1.2"/></filter>
  </defs>
  <rect width="800" height="450" fill="url(#bg)"/>
  <circle cx="148" cy="212" r="1.1" fill="#f0c36b" opacity="0.47"/>
<circle cx="209" cy="309" r="1.5" fill="#f0c36b" opacity="0.31"/>
<circle cx="270" cy="406" r="0.8" fill="#f0c36b" opacity="0.69"/>
<circle cx="331" cy="53" r="1.1" fill="#f0c36b" opacity="0.53"/>
<circle cx="392" cy="150" r="1.5" fill="#f0c36b" opacity="0.36"/>
<circle cx="453" cy="247" r="0.8" fill="#f0c36b" opacity="0.75"/>
<circle cx="514" cy="344" r="1.1" fill="#f0c36b" opacity="0.58"/>
<circle cx="575" cy="441" r="1.5" fill="#f0c36b" opacity="0.42"/>
<circle cx="636" cy="88" r="0.8" fill="#f0c36b" opacity="0.25"/>
<circle cx="697" cy="185" r="1.1" fill="#f0c36b" opacity="0.64"/>
<circle cx="758" cy="282" r="1.5" fill="#f0c36b" opacity="0.47"/>
<circle cx="19" cy="379" r="0.8" fill="#f0c36b" opacity="0.31"/>
<circle cx="80" cy="26" r="1.1" fill="#f0c36b" opacity="0.69"/>
<circle cx="141" cy="123" r="1.5" fill="#f0c36b" opacity="0.53"/>
<circle cx="202" cy="220" r="0.8" fill="#f0c36b" opacity="0.36"/>
<circle cx="263" cy="317" r="1.1" fill="#f0c36b" opacity="0.75"/>
<circle cx="324" cy="414" r="1.5" fill="#f0c36b" opacity="0.58"/>
<circle cx="385" cy="61" r="0.8" fill="#f0c36b" opacity="0.42"/>
<circle cx="446" cy="158" r="1.1" fill="#f0c36b" opacity="0.25"/>
<circle cx="507" cy="255" r="1.5" fill="#f0c36b" opacity="0.64"/>
<circle cx="568" cy="352" r="0.8" fill="#f0c36b" opacity="0.47"/>
<circle cx="629" cy="449" r="1.1" fill="#f0c36b" opacity="0.31"/>
<circle cx="690" cy="96" r="1.5" fill="#f0c36b" opacity="0.69"/>
<circle cx="751" cy="193" r="0.8" fill="#f0c36b" opacity="0.53"/>
<circle cx="12" cy="290" r="1.1" fill="#f0c36b" opacity="0.36"/>
<circle cx="73" cy="387" r="1.5" fill="#f0c36b" opacity="0.75"/>
<circle cx="134" cy="34" r="0.8" fill="#f0c36b" opacity="0.58"/>
<circle cx="195" cy="131" r="1.1" fill="#f0c36b" opacity="0.42"/>
<circle cx="256" cy="228" r="1.5" fill="#f0c36b" opacity="0.25"/>
<circle cx="317" cy="325" r="0.8" fill="#f0c36b" opacity="0.64"/>
<circle cx="378" cy="422" r="1.1" fill="#f0c36b" opacity="0.47"/>
<circle cx="439" cy="69" r="1.5" fill="#f0c36b" opacity="0.31"/>
<circle cx="500" cy="166" r="0.8" fill="#f0c36b" opacity="0.69"/>
<circle cx="561" cy="263" r="1.1" fill="#f0c36b" opacity="0.53"/>
<circle cx="622" cy="360" r="1.5" fill="#f0c36b" opacity="0.36"/>
<circle cx="683" cy="7" r="0.8" fill="#f0c36b" opacity="0.75"/>
<circle cx="744" cy="104" r="1.1" fill="#f0c36b" opacity="0.58"/>
<circle cx="5" cy="201" r="1.5" fill="#f0c36b" opacity="0.42"/>
<circle cx="66" cy="298" r="0.8" fill="#f0c36b" opacity="0.25"/>
<circle cx="127" cy="395" r="1.1" fill="#f0c36b" opacity="0.64"/>
<circle cx="188" cy="42" r="1.5" fill="#f0c36b" opacity="0.47"/>
<circle cx="249" cy="139" r="0.8" fill="#f0c36b" opacity="0.31"/>
<circle cx="310" cy="236" r="1.1" fill="#f0c36b" opacity="0.69"/>
<circle cx="371" cy="333" r="1.5" fill="#f0c36b" opacity="0.53"/>
<circle cx="432" cy="430" r="0.8" fill="#f0c36b" opacity="0.36"/>
<circle cx="493" cy="77" r="1.1" fill="#f0c36b" opacity="0.75"/>
<circle cx="554" cy="174" r="1.5" fill="#f0c36b" opacity="0.58"/>
<circle cx="615" cy="271" r="0.8" fill="#f0c36b" opacity="0.42"/>
<circle cx="676" cy="368" r="1.1" fill="#f0c36b" opacity="0.25"/>
<circle cx="737" cy="15" r="1.5" fill="#f0c36b" opacity="0.64"/>
<circle cx="798" cy="112" r="0.8" fill="#f0c36b" opacity="0.47"/>
<circle cx="59" cy="209" r="1.1" fill="#f0c36b" opacity="0.31"/>
<circle cx="120" cy="306" r="1.5" fill="#f0c36b" opacity="0.69"/>
<circle cx="181" cy="403" r="0.8" fill="#f0c36b" opacity="0.53"/>
<circle cx="242" cy="50" r="1.1" fill="#f0c36b" opacity="0.36"/>
<circle cx="303" cy="147" r="1.5" fill="#f0c36b" opacity="0.75"/>
<circle cx="364" cy="244" r="0.8" fill="#f0c36b" opacity="0.58"/>
<circle cx="425" cy="341" r="1.1" fill="#f0c36b" opacity="0.42"/>
<circle cx="486" cy="438" r="1.5" fill="#f0c36b" opacity="0.25"/>
<circle cx="547" cy="85" r="0.8" fill="#f0c36b" opacity="0.64"/>
<circle cx="608" cy="182" r="1.1" fill="#f0c36b" opacity="0.47"/>
<circle cx="669" cy="279" r="1.5" fill="#f0c36b" opacity="0.31"/>
<circle cx="730" cy="376" r="0.8" fill="#f0c36b" opacity="0.69"/>
<circle cx="791" cy="23" r="1.1" fill="#f0c36b" opacity="0.53"/>
<circle cx="52" cy="120" r="1.5" fill="#f0c36b" opacity="0.36"/>
<circle cx="113" cy="217" r="0.8" fill="#f0c36b" opacity="0.75"/>
<circle cx="174" cy="314" r="1.1" fill="#f0c36b" opacity="0.58"/>
<circle cx="235" cy="411" r="1.5" fill="#f0c36b" opacity="0.42"/>
<circle cx="296" cy="58" r="0.8" fill="#f0c36b" opacity="0.25"/>
<circle cx="357" cy="155" r="1.1" fill="#f0c36b" opacity="0.64"/>
  <circle cx="400" cy="245" r="132" fill="none" stroke="#f0b15c" stroke-width="8" opacity="0.55"/>
  <circle cx="400" cy="245" r="144" fill="none" stroke="#ffe0a8" stroke-width="1.5" opacity="0.62"/>
  <circle cx="400" cy="245" r="116" fill="none" stroke="#ff7a2a" stroke-width="1" opacity="0.28"/>
  
        <ellipse cx="400" cy="245" rx="92" ry="34" fill="none" stroke="#ffd88d" stroke-width="4" opacity="0.75" transform="rotate(-28 400 245)"/>
        <ellipse cx="400" cy="245" rx="60" ry="20" fill="#ffd88d" opacity="0.25" transform="rotate(-28 400 245)"/>
        
  <circle cx="280" cy="155" r="10" fill="#fff6d7" opacity="0.98"/><circle cx="280" cy="155" r="25" fill="url(#glow)" opacity="0.45"/>
<circle cx="528" cy="161" r="10" fill="#fff6d7" opacity="0.98"/><circle cx="528" cy="161" r="25" fill="url(#glow)" opacity="0.45"/>
<circle cx="300" cy="345" r="10" fill="#fff6d7" opacity="0.98"/><circle cx="300" cy="345" r="25" fill="url(#glow)" opacity="0.45"/>
<circle cx="522" cy="341" r="10" fill="#fff6d7" opacity="0.98"/><circle cx="522" cy="341" r="25" fill="url(#glow)" opacity="0.45"/>
  <rect x="34" y="320" width="732" height="84" rx="20" fill="#020202" opacity="0.64" stroke="#d7a64a" stroke-width="1"/>
  <text x="60" y="356" fill="#ffe8b6" font-size="30" font-family="serif" font-weight="700">PG 1115+080</text>
  <text x="60" y="386" fill="#c7a15a" font-size="18" font-family="serif">Lensed QSO · Quadruply imaged quasar</text>
</svg>