<svg xmlns="http://www.w3.org/2000/svg" width="800" height="450" viewBox="0 0 800 450" role="img" aria-label="Q0957+561">
  <defs>
    <radialGradient id="bg" cx="50%" cy="50%" r="80%">
      <stop offset="0%" stop-color="#211207"/>
      <stop offset="42%" stop-color="#0b0a0b"/>
      <stop offset="100%" stop-color="#000000"/>
    </radialGradient>
    <radialGradient id="glow" cx="50%" cy="50%" r="50%">
      <stop offset="0%" stop-color="#ffffff" stop-opacity="1"/>
      <stop offset="35%" stop-color="#ffd88d" stop-opacity="0.76"/>
      <stop offset="100%" stop-color="#ff8a00" stop-opacity="0"/>
    </radialGradient>
    <filter id="blur"><feGaussianBlur stdDeviation="1.2"/></filter>
  </defs>
  <rect width="800" height="450" fill="url(#bg)"/>
  <circle cx="259" cy="371" r="1.1" fill="#f0c36b" opacity="0.64"/>
<circle cx="320" cy="18" r="1.5" fill="#f0c36b" opacity="0.47"/>
<circle cx="381" cy="115" r="0.8" fill="#f0c36b" opacity="0.31"/>
<circle cx="442" cy="212" r="1.1" fill="#f0c36b" opacity="0.69"/>
<circle cx="503" cy="309" r="1.5" fill="#f0c36b" opacity="0.53"/>
<circle cx="564" cy="406" r="0.8" fill="#f0c36b" opacity="0.36"/>
<circle cx="625" cy="53" r="1.1" fill="#f0c36b" opacity="0.75"/>
<circle cx="686" cy="150" r="1.5" fill="#f0c36b" opacity="0.58"/>
<circle cx="747" cy="247" r="0.8" fill="#f0c36b" opacity="0.42"/>
<circle cx="8" cy="344" r="1.1" fill="#f0c36b" opacity="0.25"/>
<circle cx="69" cy="441" r="1.5" fill="#f0c36b" opacity="0.64"/>
<circle cx="130" cy="88" r="0.8" fill="#f0c36b" opacity="0.47"/>
<circle cx="191" cy="185" r="1.1" fill="#f0c36b" opacity="0.31"/>
<circle cx="252" cy="282" r="1.5" fill="#f0c36b" opacity="0.69"/>
<circle cx="313" cy="379" r="0.8" fill="#f0c36b" opacity="0.53"/>
<circle cx="374" cy="26" r="1.1" fill="#f0c36b" opacity="0.36"/>
<circle cx="435" cy="123" r="1.5" fill="#f0c36b" opacity="0.75"/>
<circle cx="496" cy="220" r="0.8" fill="#f0c36b" opacity="0.58"/>
<circle cx="557" cy="317" r="1.1" fill="#f0c36b" opacity="0.42"/>
<circle cx="618" cy="414" r="1.5" fill="#f0c36b" opacity="0.25"/>
<circle cx="679" cy="61" r="0.8" fill="#f0c36b" opacity="0.64"/>
<circle cx="740" cy="158" r="1.1" fill="#f0c36b" opacity="0.47"/>
<circle cx="1" cy="255" r="1.5" fill="#f0c36b" opacity="0.31"/>
<circle cx="62" cy="352" r="0.8" fill="#f0c36b" opacity="0.69"/>
<circle cx="123" cy="449" r="1.1" fill="#f0c36b" opacity="0.53"/>
<circle cx="184" cy="96" r="1.5" fill="#f0c36b" opacity="0.36"/>
<circle cx="245" cy="193" r="0.8" fill="#f0c36b" opacity="0.75"/>
<circle cx="306" cy="290" r="1.1" fill="#f0c36b" opacity="0.58"/>
<circle cx="367" cy="387" r="1.5" fill="#f0c36b" opacity="0.42"/>
<circle cx="428" cy="34" r="0.8" fill="#f0c36b" opacity="0.25"/>
<circle cx="489" cy="131" r="1.1" fill="#f0c36b" opacity="0.64"/>
<circle cx="550" cy="228" r="1.5" fill="#f0c36b" opacity="0.47"/>
<circle cx="611" cy="325" r="0.8" fill="#f0c36b" opacity="0.31"/>
<circle cx="672" cy="422" r="1.1" fill="#f0c36b" opacity="0.69"/>
<circle cx="733" cy="69" r="1.5" fill="#f0c36b" opacity="0.53"/>
<circle cx="794" cy="166" r="0.8" fill="#f0c36b" opacity="0.36"/>
<circle cx="55" cy="263" r="1.1" fill="#f0c36b" opacity="0.75"/>
<circle cx="116" cy="360" r="1.5" fill="#f0c36b" opacity="0.58"/>
<circle cx="177" cy="7" r="0.8" fill="#f0c36b" opacity="0.42"/>
<circle cx="238" cy="104" r="1.1" fill="#f0c36b" opacity="0.25"/>
<circle cx="299" cy="201" r="1.5" fill="#f0c36b" opacity="0.64"/>
<circle cx="360" cy="298" r="0.8" fill="#f0c36b" opacity="0.47"/>
<circle cx="421" cy="395" r="1.1" fill="#f0c36b" opacity="0.31"/>
<circle cx="482" cy="42" r="1.5" fill="#f0c36b" opacity="0.69"/>
<circle cx="543" cy="139" r="0.8" fill="#f0c36b" opacity="0.53"/>
<circle cx="604" cy="236" r="1.1" fill="#f0c36b" opacity="0.36"/>
<circle cx="665" cy="333" r="1.5" fill="#f0c36b" opacity="0.75"/>
<circle cx="726" cy="430" r="0.8" fill="#f0c36b" opacity="0.58"/>
<circle cx="787" cy="77" r="1.1" fill="#f0c36b" opacity="0.42"/>
<circle cx="48" cy="174" r="1.5" fill="#f0c36b" opacity="0.25"/>
<circle cx="109" cy="271" r="0.8" fill="#f0c36b" opacity="0.64"/>
<circle cx="170" cy="368" r="1.1" fill="#f0c36b" opacity="0.47"/>
<circle cx="231" cy="15" r="1.5" fill="#f0c36b" opacity="0.31"/>
<circle cx="292" cy="112" r="0.8" fill="#f0c36b" opacity="0.69"/>
<circle cx="353" cy="209" r="1.1" fill="#f0c36b" opacity="0.53"/>
<circle cx="414" cy="306" r="1.5" fill="#f0c36b" opacity="0.36"/>
<circle cx="475" cy="403" r="0.8" fill="#f0c36b" opacity="0.75"/>
<circle cx="536" cy="50" r="1.1" fill="#f0c36b" opacity="0.58"/>
<circle cx="597" cy="147" r="1.5" fill="#f0c36b" opacity="0.42"/>
<circle cx="658" cy="244" r="0.8" fill="#f0c36b" opacity="0.25"/>
<circle cx="719" cy="341" r="1.1" fill="#f0c36b" opacity="0.64"/>
<circle cx="780" cy="438" r="1.5" fill="#f0c36b" opacity="0.47"/>
<circle cx="41" cy="85" r="0.8" fill="#f0c36b" opacity="0.31"/>
<circle cx="102" cy="182" r="1.1" fill="#f0c36b" opacity="0.69"/>
<circle cx="163" cy="279" r="1.5" fill="#f0c36b" opacity="0.53"/>
<circle cx="224" cy="376" r="0.8" fill="#f0c36b" opacity="0.36"/>
<circle cx="285" cy="23" r="1.1" fill="#f0c36b" opacity="0.75"/>
<circle cx="346" cy="120" r="1.5" fill="#f0c36b" opacity="0.58"/>
<circle cx="407" cy="217" r="0.8" fill="#f0c36b" opacity="0.42"/>
<circle cx="468" cy="314" r="1.1" fill="#f0c36b" opacity="0.25"/>
  <circle cx="400" cy="245" r="132" fill="none" stroke="#f0b15c" stroke-width="8" opacity="0.55"/>
  <circle cx="400" cy="245" r="144" fill="none" stroke="#ffe0a8" stroke-width="1.5" opacity="0.62"/>
  <circle cx="400" cy="245" r="116" fill="none" stroke="#ff7a2a" stroke-width="1" opacity="0.28"/>
  
        <ellipse cx="400" cy="245" rx="92" ry="34" fill="none" stroke="#ffd88d" stroke-width="4" opacity="0.75" transform="rotate(-28 400 245)"/>
        <ellipse cx="400" cy="245" rx="60" ry="20" fill="#ffd88d" opacity="0.25" transform="rotate(-28 400 245)"/>
        
  <circle cx="330" cy="135" r="10" fill="#fff6d7" opacity="0.98"/><circle cx="330" cy="135" r="25" fill="url(#glow)" opacity="0.45"/>
<circle cx="478" cy="353" r="10" fill="#fff6d7" opacity="0.98"/><circle cx="478" cy="353" r="25" fill="url(#glow)" opacity="0.45"/>
<circle cx="528" cy="227" r="10" fill="#fff6d7" opacity="0.98"/><circle cx="528" cy="227" r="25" fill="url(#glow)" opacity="0.45"/>
  <rect x="34" y="320" width="732" height="84" rx="20" fill="#020202" opacity="0.64" stroke="#d7a64a" stroke-width="1"/>
  <text x="60" y="356" fill="#ffe8b6" font-size="30" font-family="serif" font-weight="700">Q0957+561</text>
  <text x="60" y="386" fill="#c7a15a" font-size="18" font-family="serif">Lensed QSO · Doubly imaged quasar</text>
</svg>