<svg xmlns="http://www.w3.org/2000/svg" width="800" height="450" viewBox="0 0 800 450" role="img" aria-label="RXJ1131−1231">
  <defs>
    <radialGradient id="bg" cx="50%" cy="50%" r="80%">
      <stop offset="0%" stop-color="#211207"/>
      <stop offset="42%" stop-color="#0b0a0b"/>
      <stop offset="100%" stop-color="#000000"/>
    </radialGradient>
    <radialGradient id="glow" cx="50%" cy="50%" r="50%">
      <stop offset="0%" stop-color="#ffffff" stop-opacity="1"/>
      <stop offset="35%" stop-color="#ffd88d" stop-opacity="0.76"/>
      <stop offset="100%" stop-color="#ff8a00" stop-opacity="0"/>
    </radialGradient>
    <filter id="blur"><feGaussianBlur stdDeviation="1.2"/></filter>
  </defs>
  <rect width="800" height="450" fill="url(#bg)"/>
  <circle cx="111" cy="159" r="0.8" fill="#f0c36b" opacity="0.42"/>
<circle cx="172" cy="256" r="1.1" fill="#f0c36b" opacity="0.25"/>
<circle cx="233" cy="353" r="1.5" fill="#f0c36b" opacity="0.64"/>
<circle cx="294" cy="0" r="0.8" fill="#f0c36b" opacity="0.47"/>
<circle cx="355" cy="97" r="1.1" fill="#f0c36b" opacity="0.31"/>
<circle cx="416" cy="194" r="1.5" fill="#f0c36b" opacity="0.69"/>
<circle cx="477" cy="291" r="0.8" fill="#f0c36b" opacity="0.53"/>
<circle cx="538" cy="388" r="1.1" fill="#f0c36b" opacity="0.36"/>
<circle cx="599" cy="35" r="1.5" fill="#f0c36b" opacity="0.75"/>
<circle cx="660" cy="132" r="0.8" fill="#f0c36b" opacity="0.58"/>
<circle cx="721" cy="229" r="1.1" fill="#f0c36b" opacity="0.42"/>
<circle cx="782" cy="326" r="1.5" fill="#f0c36b" opacity="0.25"/>
<circle cx="43" cy="423" r="0.8" fill="#f0c36b" opacity="0.64"/>
<circle cx="104" cy="70" r="1.1" fill="#f0c36b" opacity="0.47"/>
<circle cx="165" cy="167" r="1.5" fill="#f0c36b" opacity="0.31"/>
<circle cx="226" cy="264" r="0.8" fill="#f0c36b" opacity="0.69"/>
<circle cx="287" cy="361" r="1.1" fill="#f0c36b" opacity="0.53"/>
<circle cx="348" cy="8" r="1.5" fill="#f0c36b" opacity="0.36"/>
<circle cx="409" cy="105" r="0.8" fill="#f0c36b" opacity="0.75"/>
<circle cx="470" cy="202" r="1.1" fill="#f0c36b" opacity="0.58"/>
<circle cx="531" cy="299" r="1.5" fill="#f0c36b" opacity="0.42"/>
<circle cx="592" cy="396" r="0.8" fill="#f0c36b" opacity="0.25"/>
<circle cx="653" cy="43" r="1.1" fill="#f0c36b" opacity="0.64"/>
<circle cx="714" cy="140" r="1.5" fill="#f0c36b" opacity="0.47"/>
<circle cx="775" cy="237" r="0.8" fill="#f0c36b" opacity="0.31"/>
<circle cx="36" cy="334" r="1.1" fill="#f0c36b" opacity="0.69"/>
<circle cx="97" cy="431" r="1.5" fill="#f0c36b" opacity="0.53"/>
<circle cx="158" cy="78" r="0.8" fill="#f0c36b" opacity="0.36"/>
<circle cx="219" cy="175" r="1.1" fill="#f0c36b" opacity="0.75"/>
<circle cx="280" cy="272" r="1.5" fill="#f0c36b" opacity="0.58"/>
<circle cx="341" cy="369" r="0.8" fill="#f0c36b" opacity="0.42"/>
<circle cx="402" cy="16" r="1.1" fill="#f0c36b" opacity="0.25"/>
<circle cx="463" cy="113" r="1.5" fill="#f0c36b" opacity="0.64"/>
<circle cx="524" cy="210" r="0.8" fill="#f0c36b" opacity="0.47"/>
<circle cx="585" cy="307" r="1.1" fill="#f0c36b" opacity="0.31"/>
<circle cx="646" cy="404" r="1.5" fill="#f0c36b" opacity="0.69"/>
<circle cx="707" cy="51" r="0.8" fill="#f0c36b" opacity="0.53"/>
<circle cx="768" cy="148" r="1.1" fill="#f0c36b" opacity="0.36"/>
<circle cx="29" cy="245" r="1.5" fill="#f0c36b" opacity="0.75"/>
<circle cx="90" cy="342" r="0.8" fill="#f0c36b" opacity="0.58"/>
<circle cx="151" cy="439" r="1.1" fill="#f0c36b" opacity="0.42"/>
<circle cx="212" cy="86" r="1.5" fill="#f0c36b" opacity="0.25"/>
<circle cx="273" cy="183" r="0.8" fill="#f0c36b" opacity="0.64"/>
<circle cx="334" cy="280" r="1.1" fill="#f0c36b" opacity="0.47"/>
<circle cx="395" cy="377" r="1.5" fill="#f0c36b" opacity="0.31"/>
<circle cx="456" cy="24" r="0.8" fill="#f0c36b" opacity="0.69"/>
<circle cx="517" cy="121" r="1.1" fill="#f0c36b" opacity="0.53"/>
<circle cx="578" cy="218" r="1.5" fill="#f0c36b" opacity="0.36"/>
<circle cx="639" cy="315" r="0.8" fill="#f0c36b" opacity="0.75"/>
<circle cx="700" cy="412" r="1.1" fill="#f0c36b" opacity="0.58"/>
<circle cx="761" cy="59" r="1.5" fill="#f0c36b" opacity="0.42"/>
<circle cx="22" cy="156" r="0.8" fill="#f0c36b" opacity="0.25"/>
<circle cx="83" cy="253" r="1.1" fill="#f0c36b" opacity="0.64"/>
<circle cx="144" cy="350" r="1.5" fill="#f0c36b" opacity="0.47"/>
<circle cx="205" cy="447" r="0.8" fill="#f0c36b" opacity="0.31"/>
<circle cx="266" cy="94" r="1.1" fill="#f0c36b" opacity="0.69"/>
<circle cx="327" cy="191" r="1.5" fill="#f0c36b" opacity="0.53"/>
<circle cx="388" cy="288" r="0.8" fill="#f0c36b" opacity="0.36"/>
<circle cx="449" cy="385" r="1.1" fill="#f0c36b" opacity="0.75"/>
<circle cx="510" cy="32" r="1.5" fill="#f0c36b" opacity="0.58"/>
<circle cx="571" cy="129" r="0.8" fill="#f0c36b" opacity="0.42"/>
<circle cx="632" cy="226" r="1.1" fill="#f0c36b" opacity="0.25"/>
<circle cx="693" cy="323" r="1.5" fill="#f0c36b" opacity="0.64"/>
<circle cx="754" cy="420" r="0.8" fill="#f0c36b" opacity="0.47"/>
<circle cx="15" cy="67" r="1.1" fill="#f0c36b" opacity="0.31"/>
<circle cx="76" cy="164" r="1.5" fill="#f0c36b" opacity="0.69"/>
<circle cx="137" cy="261" r="0.8" fill="#f0c36b" opacity="0.53"/>
<circle cx="198" cy="358" r="1.1" fill="#f0c36b" opacity="0.36"/>
<circle cx="259" cy="5" r="1.5" fill="#f0c36b" opacity="0.75"/>
<circle cx="320" cy="102" r="0.8" fill="#f0c36b" opacity="0.58"/>
  <circle cx="400" cy="245" r="132" fill="none" stroke="#f0b15c" stroke-width="8" opacity="0.55"/>
  <circle cx="400" cy="245" r="144" fill="none" stroke="#ffe0a8" stroke-width="1.5" opacity="0.62"/>
  <circle cx="400" cy="245" r="116" fill="none" stroke="#ff7a2a" stroke-width="1" opacity="0.28"/>
  
        <ellipse cx="400" cy="245" rx="92" ry="34" fill="none" stroke="#ffd88d" stroke-width="4" opacity="0.75" transform="rotate(-28 400 245)"/>
        <ellipse cx="400" cy="245" rx="60" ry="20" fill="#ffd88d" opacity="0.25" transform="rotate(-28 400 245)"/>
        
  <circle cx="280" cy="155" r="10" fill="#fff6d7" opacity="0.98"/><circle cx="280" cy="155" r="25" fill="url(#glow)" opacity="0.45"/>
<circle cx="528" cy="161" r="10" fill="#fff6d7" opacity="0.98"/><circle cx="528" cy="161" r="25" fill="url(#glow)" opacity="0.45"/>
<circle cx="300" cy="345" r="10" fill="#fff6d7" opacity="0.98"/><circle cx="300" cy="345" r="25" fill="url(#glow)" opacity="0.45"/>
<circle cx="522" cy="341" r="10" fill="#fff6d7" opacity="0.98"/><circle cx="522" cy="341" r="25" fill="url(#glow)" opacity="0.45"/>
  <rect x="34" y="320" width="732" height="84" rx="20" fill="#020202" opacity="0.64" stroke="#d7a64a" stroke-width="1"/>
  <text x="60" y="356" fill="#ffe8b6" font-size="30" font-family="serif" font-weight="700">RXJ1131−1231</text>
  <text x="60" y="386" fill="#c7a15a" font-size="18" font-family="serif">Lensed QSO · Quadruply imaged quasar</text>
</svg>