<svg xmlns="http://www.w3.org/2000/svg" width="800" height="450" viewBox="0 0 800 450" role="img" aria-label="SN Encore">
  <defs>
    <radialGradient id="bg" cx="50%" cy="50%" r="80%">
      <stop offset="0%" stop-color="#211207"/>
      <stop offset="42%" stop-color="#0b0a0b"/>
      <stop offset="100%" stop-color="#000000"/>
    </radialGradient>
    <radialGradient id="glow" cx="50%" cy="50%" r="50%">
      <stop offset="0%" stop-color="#ffffff" stop-opacity="1"/>
      <stop offset="35%" stop-color="#ffd88d" stop-opacity="0.76"/>
      <stop offset="100%" stop-color="#ff8a00" stop-opacity="0"/>
    </radialGradient>
    <filter id="blur"><feGaussianBlur stdDeviation="1.2"/></filter>
  </defs>
  <rect width="800" height="450" fill="url(#bg)"/>
  <circle cx="106" cy="42" r="0.8" fill="#f0c36b" opacity="0.31"/>
  <circle cx="167" cy="139" r="1.1" fill="#f0c36b" opacity="0.69"/>
  <circle cx="228" cy="236" r="1.5" fill="#f0c36b" opacity="0.53"/>
  <circle cx="289" cy="333" r="0.8" fill="#f0c36b" opacity="0.36"/>
  <circle cx="350" cy="430" r="1.1" fill="#f0c36b" opacity="0.75"/>
  <circle cx="411" cy="77" r="1.5" fill="#f0c36b" opacity="0.58"/>
  <circle cx="472" cy="174" r="0.8" fill="#f0c36b" opacity="0.42"/>
  <circle cx="533" cy="271" r="1.1" fill="#f0c36b" opacity="0.25"/>
  <circle cx="594" cy="368" r="1.5" fill="#f0c36b" opacity="0.64"/>
  <circle cx="655" cy="15" r="0.8" fill="#f0c36b" opacity="0.47"/>
  <circle cx="716" cy="112" r="1.1" fill="#f0c36b" opacity="0.31"/>
  <circle cx="777" cy="209" r="1.5" fill="#f0c36b" opacity="0.69"/>
  <circle cx="38" cy="306" r="0.8" fill="#f0c36b" opacity="0.53"/>
  <circle cx="99" cy="403" r="1.1" fill="#f0c36b" opacity="0.36"/>
  <circle cx="160" cy="50" r="1.5" fill="#f0c36b" opacity="0.75"/>
  <circle cx="221" cy="147" r="0.8" fill="#f0c36b" opacity="0.58"/>
  <circle cx="282" cy="244" r="1.1" fill="#f0c36b" opacity="0.42"/>
  <circle cx="343" cy="341" r="1.5" fill="#f0c36b" opacity="0.25"/>
  <circle cx="404" cy="438" r="0.8" fill="#f0c36b" opacity="0.64"/>
  <circle cx="465" cy="85" r="1.1" fill="#f0c36b" opacity="0.47"/>
  <circle cx="526" cy="182" r="1.5" fill="#f0c36b" opacity="0.31"/>
  <circle cx="587" cy="279" r="0.8" fill="#f0c36b" opacity="0.69"/>
  <circle cx="648" cy="376" r="1.1" fill="#f0c36b" opacity="0.53"/>
  <circle cx="709" cy="23" r="1.5" fill="#f0c36b" opacity="0.36"/>
  <circle cx="770" cy="120" r="0.8" fill="#f0c36b" opacity="0.75"/>
  <circle cx="31" cy="217" r="1.1" fill="#f0c36b" opacity="0.58"/>
  <circle cx="92" cy="314" r="1.5" fill="#f0c36b" opacity="0.42"/>
  <circle cx="153" cy="411" r="0.8" fill="#f0c36b" opacity="0.25"/>
  <circle cx="214" cy="58" r="1.1" fill="#f0c36b" opacity="0.64"/>
  <circle cx="275" cy="155" r="1.5" fill="#f0c36b" opacity="0.47"/>
  <circle cx="336" cy="252" r="0.8" fill="#f0c36b" opacity="0.31"/>
  <circle cx="397" cy="349" r="1.1" fill="#f0c36b" opacity="0.69"/>
  <circle cx="458" cy="446" r="1.5" fill="#f0c36b" opacity="0.53"/>
  <circle cx="519" cy="93" r="0.8" fill="#f0c36b" opacity="0.36"/>
  <circle cx="580" cy="190" r="1.1" fill="#f0c36b" opacity="0.75"/>
  <circle cx="641" cy="287" r="1.5" fill="#f0c36b" opacity="0.58"/>
  <circle cx="702" cy="384" r="0.8" fill="#f0c36b" opacity="0.42"/>
  <circle cx="763" cy="31" r="1.1" fill="#f0c36b" opacity="0.25"/>
  <circle cx="24" cy="128" r="1.5" fill="#f0c36b" opacity="0.64"/>
  <circle cx="85" cy="225" r="0.8" fill="#f0c36b" opacity="0.47"/>
  <circle cx="146" cy="322" r="1.1" fill="#f0c36b" opacity="0.31"/>
  <circle cx="207" cy="419" r="1.5" fill="#f0c36b" opacity="0.69"/>
  <circle cx="268" cy="66" r="0.8" fill="#f0c36b" opacity="0.53"/>
  <circle cx="329" cy="163" r="1.1" fill="#f0c36b" opacity="0.36"/>
  <circle cx="390" cy="260" r="1.5" fill="#f0c36b" opacity="0.75"/>
  <circle cx="451" cy="357" r="0.8" fill="#f0c36b" opacity="0.58"/>
  <circle cx="512" cy="4" r="1.1" fill="#f0c36b" opacity="0.42"/>
  <circle cx="573" cy="101" r="1.5" fill="#f0c36b" opacity="0.25"/>
  <circle cx="634" cy="198" r="0.8" fill="#f0c36b" opacity="0.64"/>
  <circle cx="695" cy="295" r="1.1" fill="#f0c36b" opacity="0.47"/>
  <circle cx="756" cy="392" r="1.5" fill="#f0c36b" opacity="0.31"/>
  <circle cx="17" cy="39" r="0.8" fill="#f0c36b" opacity="0.69"/>
  <circle cx="78" cy="136" r="1.1" fill="#f0c36b" opacity="0.53"/>
  <circle cx="139" cy="233" r="1.5" fill="#f0c36b" opacity="0.36"/>
  <circle cx="200" cy="330" r="0.8" fill="#f0c36b" opacity="0.75"/>
  <circle cx="261" cy="427" r="1.1" fill="#f0c36b" opacity="0.58"/>
  <circle cx="322" cy="74" r="1.5" fill="#f0c36b" opacity="0.42"/>
  <circle cx="383" cy="171" r="0.8" fill="#f0c36b" opacity="0.25"/>
  <circle cx="444" cy="268" r="1.1" fill="#f0c36b" opacity="0.64"/>
  <circle cx="505" cy="365" r="1.5" fill="#f0c36b" opacity="0.47"/>
  <circle cx="566" cy="12" r="0.8" fill="#f0c36b" opacity="0.31"/>
  <circle cx="627" cy="109" r="1.1" fill="#f0c36b" opacity="0.69"/>
  <circle cx="688" cy="206" r="1.5" fill="#f0c36b" opacity="0.53"/>
  <circle cx="749" cy="303" r="0.8" fill="#f0c36b" opacity="0.36"/>
  <circle cx="10" cy="400" r="1.1" fill="#f0c36b" opacity="0.75"/>
  <circle cx="71" cy="47" r="1.5" fill="#f0c36b" opacity="0.58"/>
  <circle cx="400" cy="245" r="118" fill="none" stroke="#f0b15c" stroke-width="8" opacity="0.55"/>
  <circle cx="400" cy="245" r="130" fill="none" stroke="#ffe0a8" stroke-width="1.5" opacity="0.62"/>
  <circle cx="400" cy="245" r="102" fill="none" stroke="#ff7a2a" stroke-width="1" opacity="0.28"/>
  <path d="M330 245 C360 198 430 198 470 245 C430 292 360 292 330 245 Z" fill="none" stroke="#f0c36b" stroke-width="2" opacity="0.5"/>
  <path d="M400 185 L408 234 L456 245 L408 256 L400 305 L392 256 L344 245 L392 234 Z" fill="#fff8e8" opacity="0.84"/>
  <circle cx="292" cy="158" r="12" fill="#fff6d7" opacity="0.98"/><circle cx="292" cy="158" r="30" fill="url(#glow)" opacity="0.45"/>
  <circle cx="510" cy="162" r="12" fill="#fff6d7" opacity="0.98"/><circle cx="510" cy="162" r="30" fill="url(#glow)" opacity="0.45"/>
  <circle cx="318" cy="342" r="12" fill="#fff6d7" opacity="0.98"/><circle cx="318" cy="342" r="30" fill="url(#glow)" opacity="0.45"/>
  <circle cx="528" cy="336" r="12" fill="#fff6d7" opacity="0.98"/><circle cx="528" cy="336" r="30" fill="url(#glow)" opacity="0.45"/>
  <circle cx="404" cy="116" r="12" fill="#fff6d7" opacity="0.98"/><circle cx="404" cy="116" r="30" fill="url(#glow)" opacity="0.45"/>
  <rect x="34" y="320" width="732" height="84" rx="20" fill="#020202" opacity="0.64" stroke="#d7a64a" stroke-width="1"/>
  <text x="60" y="356" fill="#ffe8b6" font-size="30" font-family="serif" font-weight="700">SN Encore</text>
  <text x="60" y="386" fill="#c7a15a" font-size="18" font-family="serif">Lensed SN · Requiem host field</text>
</svg>
