<svg xmlns="http://www.w3.org/2000/svg" width="800" height="450" viewBox="0 0 800 450" role="img" aria-label="SN Eos">
  <defs>
    <radialGradient id="bg" cx="50%" cy="50%" r="80%">
      <stop offset="0%" stop-color="#211207"/>
      <stop offset="42%" stop-color="#0b0a0b"/>
      <stop offset="100%" stop-color="#000000"/>
    </radialGradient>
    <radialGradient id="glow" cx="50%" cy="50%" r="50%">
      <stop offset="0%" stop-color="#ffffff" stop-opacity="1"/>
      <stop offset="35%" stop-color="#ffd88d" stop-opacity="0.76"/>
      <stop offset="100%" stop-color="#ff8a00" stop-opacity="0"/>
    </radialGradient>
    <filter id="blur"><feGaussianBlur stdDeviation="1.2"/></filter>
  </defs>
  <rect width="800" height="450" fill="url(#bg)"/>
  <circle cx="597" cy="129" r="0.8" fill="#f0c36b" opacity="0.31"/>
  <circle cx="658" cy="226" r="1.1" fill="#f0c36b" opacity="0.69"/>
  <circle cx="719" cy="323" r="1.5" fill="#f0c36b" opacity="0.53"/>
  <circle cx="780" cy="420" r="0.8" fill="#f0c36b" opacity="0.36"/>
  <circle cx="41" cy="67" r="1.1" fill="#f0c36b" opacity="0.75"/>
  <circle cx="102" cy="164" r="1.5" fill="#f0c36b" opacity="0.58"/>
  <circle cx="163" cy="261" r="0.8" fill="#f0c36b" opacity="0.42"/>
  <circle cx="224" cy="358" r="1.1" fill="#f0c36b" opacity="0.25"/>
  <circle cx="285" cy="5" r="1.5" fill="#f0c36b" opacity="0.64"/>
  <circle cx="346" cy="102" r="0.8" fill="#f0c36b" opacity="0.47"/>
  <circle cx="407" cy="199" r="1.1" fill="#f0c36b" opacity="0.31"/>
  <circle cx="468" cy="296" r="1.5" fill="#f0c36b" opacity="0.69"/>
  <circle cx="529" cy="393" r="0.8" fill="#f0c36b" opacity="0.53"/>
  <circle cx="590" cy="40" r="1.1" fill="#f0c36b" opacity="0.36"/>
  <circle cx="651" cy="137" r="1.5" fill="#f0c36b" opacity="0.75"/>
  <circle cx="712" cy="234" r="0.8" fill="#f0c36b" opacity="0.58"/>
  <circle cx="773" cy="331" r="1.1" fill="#f0c36b" opacity="0.42"/>
  <circle cx="34" cy="428" r="1.5" fill="#f0c36b" opacity="0.25"/>
  <circle cx="95" cy="75" r="0.8" fill="#f0c36b" opacity="0.64"/>
  <circle cx="156" cy="172" r="1.1" fill="#f0c36b" opacity="0.47"/>
  <circle cx="217" cy="269" r="1.5" fill="#f0c36b" opacity="0.31"/>
  <circle cx="278" cy="366" r="0.8" fill="#f0c36b" opacity="0.69"/>
  <circle cx="339" cy="13" r="1.1" fill="#f0c36b" opacity="0.53"/>
  <circle cx="400" cy="110" r="1.5" fill="#f0c36b" opacity="0.36"/>
  <circle cx="461" cy="207" r="0.8" fill="#f0c36b" opacity="0.75"/>
  <circle cx="522" cy="304" r="1.1" fill="#f0c36b" opacity="0.58"/>
  <circle cx="583" cy="401" r="1.5" fill="#f0c36b" opacity="0.42"/>
  <circle cx="644" cy="48" r="0.8" fill="#f0c36b" opacity="0.25"/>
  <circle cx="705" cy="145" r="1.1" fill="#f0c36b" opacity="0.64"/>
  <circle cx="766" cy="242" r="1.5" fill="#f0c36b" opacity="0.47"/>
  <circle cx="27" cy="339" r="0.8" fill="#f0c36b" opacity="0.31"/>
  <circle cx="88" cy="436" r="1.1" fill="#f0c36b" opacity="0.69"/>
  <circle cx="149" cy="83" r="1.5" fill="#f0c36b" opacity="0.53"/>
  <circle cx="210" cy="180" r="0.8" fill="#f0c36b" opacity="0.36"/>
  <circle cx="271" cy="277" r="1.1" fill="#f0c36b" opacity="0.75"/>
  <circle cx="332" cy="374" r="1.5" fill="#f0c36b" opacity="0.58"/>
  <circle cx="393" cy="21" r="0.8" fill="#f0c36b" opacity="0.42"/>
  <circle cx="454" cy="118" r="1.1" fill="#f0c36b" opacity="0.25"/>
  <circle cx="515" cy="215" r="1.5" fill="#f0c36b" opacity="0.64"/>
  <circle cx="576" cy="312" r="0.8" fill="#f0c36b" opacity="0.47"/>
  <circle cx="637" cy="409" r="1.1" fill="#f0c36b" opacity="0.31"/>
  <circle cx="698" cy="56" r="1.5" fill="#f0c36b" opacity="0.69"/>
  <circle cx="759" cy="153" r="0.8" fill="#f0c36b" opacity="0.53"/>
  <circle cx="20" cy="250" r="1.1" fill="#f0c36b" opacity="0.36"/>
  <circle cx="81" cy="347" r="1.5" fill="#f0c36b" opacity="0.75"/>
  <circle cx="142" cy="444" r="0.8" fill="#f0c36b" opacity="0.58"/>
  <circle cx="203" cy="91" r="1.1" fill="#f0c36b" opacity="0.42"/>
  <circle cx="264" cy="188" r="1.5" fill="#f0c36b" opacity="0.25"/>
  <circle cx="325" cy="285" r="0.8" fill="#f0c36b" opacity="0.64"/>
  <circle cx="386" cy="382" r="1.1" fill="#f0c36b" opacity="0.47"/>
  <circle cx="447" cy="29" r="1.5" fill="#f0c36b" opacity="0.31"/>
  <circle cx="508" cy="126" r="0.8" fill="#f0c36b" opacity="0.69"/>
  <circle cx="569" cy="223" r="1.1" fill="#f0c36b" opacity="0.53"/>
  <circle cx="630" cy="320" r="1.5" fill="#f0c36b" opacity="0.36"/>
  <circle cx="691" cy="417" r="0.8" fill="#f0c36b" opacity="0.75"/>
  <circle cx="752" cy="64" r="1.1" fill="#f0c36b" opacity="0.58"/>
  <circle cx="13" cy="161" r="1.5" fill="#f0c36b" opacity="0.42"/>
  <circle cx="74" cy="258" r="0.8" fill="#f0c36b" opacity="0.25"/>
  <circle cx="135" cy="355" r="1.1" fill="#f0c36b" opacity="0.64"/>
  <circle cx="196" cy="2" r="1.5" fill="#f0c36b" opacity="0.47"/>
  <circle cx="257" cy="99" r="0.8" fill="#f0c36b" opacity="0.31"/>
  <circle cx="318" cy="196" r="1.1" fill="#f0c36b" opacity="0.69"/>
  <circle cx="379" cy="293" r="1.5" fill="#f0c36b" opacity="0.53"/>
  <circle cx="440" cy="390" r="0.8" fill="#f0c36b" opacity="0.36"/>
  <circle cx="501" cy="37" r="1.1" fill="#f0c36b" opacity="0.75"/>
  <circle cx="562" cy="134" r="1.5" fill="#f0c36b" opacity="0.58"/>
  <circle cx="400" cy="245" r="118" fill="none" stroke="#f0b15c" stroke-width="8" opacity="0.55"/>
  <circle cx="400" cy="245" r="130" fill="none" stroke="#ffe0a8" stroke-width="1.5" opacity="0.62"/>
  <circle cx="400" cy="245" r="102" fill="none" stroke="#ff7a2a" stroke-width="1" opacity="0.28"/>
  <path d="M330 245 C360 198 430 198 470 245 C430 292 360 292 330 245 Z" fill="none" stroke="#f0c36b" stroke-width="2" opacity="0.5"/>
  <path d="M400 185 L408 234 L456 245 L408 256 L400 305 L392 256 L344 245 L392 234 Z" fill="#fff8e8" opacity="0.84"/>
  <circle cx="300" cy="154" r="12" fill="#fff6d7" opacity="0.98"/><circle cx="300" cy="154" r="30" fill="url(#glow)" opacity="0.45"/>
  <circle cx="508" cy="170" r="12" fill="#fff6d7" opacity="0.98"/><circle cx="508" cy="170" r="30" fill="url(#glow)" opacity="0.45"/>
  <circle cx="310" cy="344" r="12" fill="#fff6d7" opacity="0.98"/><circle cx="310" cy="344" r="30" fill="url(#glow)" opacity="0.45"/>
  <circle cx="526" cy="338" r="12" fill="#fff6d7" opacity="0.98"/><circle cx="526" cy="338" r="30" fill="url(#glow)" opacity="0.45"/>
  <circle cx="398" cy="118" r="12" fill="#fff6d7" opacity="0.98"/><circle cx="398" cy="118" r="30" fill="url(#glow)" opacity="0.45"/>
  <rect x="34" y="320" width="732" height="84" rx="20" fill="#020202" opacity="0.64" stroke="#d7a64a" stroke-width="1"/>
  <text x="60" y="356" fill="#ffe8b6" font-size="30" font-family="serif" font-weight="700">SN Eos</text>
  <text x="60" y="386" fill="#c7a15a" font-size="18" font-family="serif">Lensed SN · high-redshift SN II</text>
</svg>
