<svg xmlns="http://www.w3.org/2000/svg" width="800" height="450" viewBox="0 0 800 450" role="img" aria-label="SN H0pe">
  <defs>
    <radialGradient id="bg" cx="50%" cy="50%" r="80%">
      <stop offset="0%" stop-color="#211207"/>
      <stop offset="42%" stop-color="#0b0a0b"/>
      <stop offset="100%" stop-color="#000000"/>
    </radialGradient>
    <radialGradient id="glow" cx="50%" cy="50%" r="50%">
      <stop offset="0%" stop-color="#ffffff" stop-opacity="1"/>
      <stop offset="35%" stop-color="#ffd88d" stop-opacity="0.76"/>
      <stop offset="100%" stop-color="#ff8a00" stop-opacity="0"/>
    </radialGradient>
    <filter id="blur"><feGaussianBlur stdDeviation="1.2"/></filter>
  </defs>
  <rect width="800" height="450" fill="url(#bg)"/>
  <circle cx="407" cy="133" r="1.5" fill="#f0c36b" opacity="0.31"/>
<circle cx="468" cy="230" r="0.8" fill="#f0c36b" opacity="0.69"/>
<circle cx="529" cy="327" r="1.1" fill="#f0c36b" opacity="0.53"/>
<circle cx="590" cy="424" r="1.5" fill="#f0c36b" opacity="0.36"/>
<circle cx="651" cy="71" r="0.8" fill="#f0c36b" opacity="0.75"/>
<circle cx="712" cy="168" r="1.1" fill="#f0c36b" opacity="0.58"/>
<circle cx="773" cy="265" r="1.5" fill="#f0c36b" opacity="0.42"/>
<circle cx="34" cy="362" r="0.8" fill="#f0c36b" opacity="0.25"/>
<circle cx="95" cy="9" r="1.1" fill="#f0c36b" opacity="0.64"/>
<circle cx="156" cy="106" r="1.5" fill="#f0c36b" opacity="0.47"/>
<circle cx="217" cy="203" r="0.8" fill="#f0c36b" opacity="0.31"/>
<circle cx="278" cy="300" r="1.1" fill="#f0c36b" opacity="0.69"/>
<circle cx="339" cy="397" r="1.5" fill="#f0c36b" opacity="0.53"/>
<circle cx="400" cy="44" r="0.8" fill="#f0c36b" opacity="0.36"/>
<circle cx="461" cy="141" r="1.1" fill="#f0c36b" opacity="0.75"/>
<circle cx="522" cy="238" r="1.5" fill="#f0c36b" opacity="0.58"/>
<circle cx="583" cy="335" r="0.8" fill="#f0c36b" opacity="0.42"/>
<circle cx="644" cy="432" r="1.1" fill="#f0c36b" opacity="0.25"/>
<circle cx="705" cy="79" r="1.5" fill="#f0c36b" opacity="0.64"/>
<circle cx="766" cy="176" r="0.8" fill="#f0c36b" opacity="0.47"/>
<circle cx="27" cy="273" r="1.1" fill="#f0c36b" opacity="0.31"/>
<circle cx="88" cy="370" r="1.5" fill="#f0c36b" opacity="0.69"/>
<circle cx="149" cy="17" r="0.8" fill="#f0c36b" opacity="0.53"/>
<circle cx="210" cy="114" r="1.1" fill="#f0c36b" opacity="0.36"/>
<circle cx="271" cy="211" r="1.5" fill="#f0c36b" opacity="0.75"/>
<circle cx="332" cy="308" r="0.8" fill="#f0c36b" opacity="0.58"/>
<circle cx="393" cy="405" r="1.1" fill="#f0c36b" opacity="0.42"/>
<circle cx="454" cy="52" r="1.5" fill="#f0c36b" opacity="0.25"/>
<circle cx="515" cy="149" r="0.8" fill="#f0c36b" opacity="0.64"/>
<circle cx="576" cy="246" r="1.1" fill="#f0c36b" opacity="0.47"/>
<circle cx="637" cy="343" r="1.5" fill="#f0c36b" opacity="0.31"/>
<circle cx="698" cy="440" r="0.8" fill="#f0c36b" opacity="0.69"/>
<circle cx="759" cy="87" r="1.1" fill="#f0c36b" opacity="0.53"/>
<circle cx="20" cy="184" r="1.5" fill="#f0c36b" opacity="0.36"/>
<circle cx="81" cy="281" r="0.8" fill="#f0c36b" opacity="0.75"/>
<circle cx="142" cy="378" r="1.1" fill="#f0c36b" opacity="0.58"/>
<circle cx="203" cy="25" r="1.5" fill="#f0c36b" opacity="0.42"/>
<circle cx="264" cy="122" r="0.8" fill="#f0c36b" opacity="0.25"/>
<circle cx="325" cy="219" r="1.1" fill="#f0c36b" opacity="0.64"/>
<circle cx="386" cy="316" r="1.5" fill="#f0c36b" opacity="0.47"/>
<circle cx="447" cy="413" r="0.8" fill="#f0c36b" opacity="0.31"/>
<circle cx="508" cy="60" r="1.1" fill="#f0c36b" opacity="0.69"/>
<circle cx="569" cy="157" r="1.5" fill="#f0c36b" opacity="0.53"/>
<circle cx="630" cy="254" r="0.8" fill="#f0c36b" opacity="0.36"/>
<circle cx="691" cy="351" r="1.1" fill="#f0c36b" opacity="0.75"/>
<circle cx="752" cy="448" r="1.5" fill="#f0c36b" opacity="0.58"/>
<circle cx="13" cy="95" r="0.8" fill="#f0c36b" opacity="0.42"/>
<circle cx="74" cy="192" r="1.1" fill="#f0c36b" opacity="0.25"/>
<circle cx="135" cy="289" r="1.5" fill="#f0c36b" opacity="0.64"/>
<circle cx="196" cy="386" r="0.8" fill="#f0c36b" opacity="0.47"/>
<circle cx="257" cy="33" r="1.1" fill="#f0c36b" opacity="0.31"/>
<circle cx="318" cy="130" r="1.5" fill="#f0c36b" opacity="0.69"/>
<circle cx="379" cy="227" r="0.8" fill="#f0c36b" opacity="0.53"/>
<circle cx="440" cy="324" r="1.1" fill="#f0c36b" opacity="0.36"/>
<circle cx="501" cy="421" r="1.5" fill="#f0c36b" opacity="0.75"/>
<circle cx="562" cy="68" r="0.8" fill="#f0c36b" opacity="0.58"/>
<circle cx="623" cy="165" r="1.1" fill="#f0c36b" opacity="0.42"/>
<circle cx="684" cy="262" r="1.5" fill="#f0c36b" opacity="0.25"/>
<circle cx="745" cy="359" r="0.8" fill="#f0c36b" opacity="0.64"/>
<circle cx="6" cy="6" r="1.1" fill="#f0c36b" opacity="0.47"/>
<circle cx="67" cy="103" r="1.5" fill="#f0c36b" opacity="0.31"/>
<circle cx="128" cy="200" r="0.8" fill="#f0c36b" opacity="0.69"/>
<circle cx="189" cy="297" r="1.1" fill="#f0c36b" opacity="0.53"/>
<circle cx="250" cy="394" r="1.5" fill="#f0c36b" opacity="0.36"/>
<circle cx="311" cy="41" r="0.8" fill="#f0c36b" opacity="0.75"/>
<circle cx="372" cy="138" r="1.1" fill="#f0c36b" opacity="0.58"/>
<circle cx="433" cy="235" r="1.5" fill="#f0c36b" opacity="0.42"/>
<circle cx="494" cy="332" r="0.8" fill="#f0c36b" opacity="0.25"/>
<circle cx="555" cy="429" r="1.1" fill="#f0c36b" opacity="0.64"/>
<circle cx="616" cy="76" r="1.5" fill="#f0c36b" opacity="0.47"/>
  <circle cx="400" cy="245" r="118" fill="none" stroke="#f0b15c" stroke-width="8" opacity="0.55"/>
  <circle cx="400" cy="245" r="130" fill="none" stroke="#ffe0a8" stroke-width="1.5" opacity="0.62"/>
  <circle cx="400" cy="245" r="102" fill="none" stroke="#ff7a2a" stroke-width="1" opacity="0.28"/>
  
        <path d="M330 245 C360 198 430 198 470 245 C430 292 360 292 330 245 Z" fill="none" stroke="#f0c36b" stroke-width="2" opacity="0.5"/>
        <path d="M400 185 L408 234 L456 245 L408 256 L400 305 L392 256 L344 245 L392 234 Z" fill="#fff8e8" opacity="0.84"/>
        
  <circle cx="330" cy="135" r="12" fill="#fff6d7" opacity="0.98"/><circle cx="330" cy="135" r="30" fill="url(#glow)" opacity="0.45"/>
<circle cx="478" cy="353" r="12" fill="#fff6d7" opacity="0.98"/><circle cx="478" cy="353" r="30" fill="url(#glow)" opacity="0.45"/>
<circle cx="528" cy="227" r="12" fill="#fff6d7" opacity="0.98"/><circle cx="528" cy="227" r="30" fill="url(#glow)" opacity="0.45"/>
  <rect x="34" y="320" width="732" height="84" rx="20" fill="#020202" opacity="0.64" stroke="#d7a64a" stroke-width="1"/>
  <text x="60" y="356" fill="#ffe8b6" font-size="30" font-family="serif" font-weight="700">SN H0pe</text>
  <text x="60" y="386" fill="#c7a15a" font-size="18" font-family="serif">Lensed SN · Type Ia supernova</text>
</svg>