<svg xmlns="http://www.w3.org/2000/svg" width="800" height="450" viewBox="0 0 800 450" role="img" aria-label="SN Refsdal">
  <defs>
    <radialGradient id="bg" cx="50%" cy="50%" r="80%">
      <stop offset="0%" stop-color="#211207"/>
      <stop offset="42%" stop-color="#0b0a0b"/>
      <stop offset="100%" stop-color="#000000"/>
    </radialGradient>
    <radialGradient id="glow" cx="50%" cy="50%" r="50%">
      <stop offset="0%" stop-color="#ffffff" stop-opacity="1"/>
      <stop offset="35%" stop-color="#ffd88d" stop-opacity="0.76"/>
      <stop offset="100%" stop-color="#ff8a00" stop-opacity="0"/>
    </radialGradient>
    <filter id="blur"><feGaussianBlur stdDeviation="1.2"/></filter>
  </defs>
  <rect width="800" height="450" fill="url(#bg)"/>
  <circle cx="296" cy="424" r="1.5" fill="#f0c36b" opacity="0.69"/>
<circle cx="357" cy="71" r="0.8" fill="#f0c36b" opacity="0.53"/>
<circle cx="418" cy="168" r="1.1" fill="#f0c36b" opacity="0.36"/>
<circle cx="479" cy="265" r="1.5" fill="#f0c36b" opacity="0.75"/>
<circle cx="540" cy="362" r="0.8" fill="#f0c36b" opacity="0.58"/>
<circle cx="601" cy="9" r="1.1" fill="#f0c36b" opacity="0.42"/>
<circle cx="662" cy="106" r="1.5" fill="#f0c36b" opacity="0.25"/>
<circle cx="723" cy="203" r="0.8" fill="#f0c36b" opacity="0.64"/>
<circle cx="784" cy="300" r="1.1" fill="#f0c36b" opacity="0.47"/>
<circle cx="45" cy="397" r="1.5" fill="#f0c36b" opacity="0.31"/>
<circle cx="106" cy="44" r="0.8" fill="#f0c36b" opacity="0.69"/>
<circle cx="167" cy="141" r="1.1" fill="#f0c36b" opacity="0.53"/>
<circle cx="228" cy="238" r="1.5" fill="#f0c36b" opacity="0.36"/>
<circle cx="289" cy="335" r="0.8" fill="#f0c36b" opacity="0.75"/>
<circle cx="350" cy="432" r="1.1" fill="#f0c36b" opacity="0.58"/>
<circle cx="411" cy="79" r="1.5" fill="#f0c36b" opacity="0.42"/>
<circle cx="472" cy="176" r="0.8" fill="#f0c36b" opacity="0.25"/>
<circle cx="533" cy="273" r="1.1" fill="#f0c36b" opacity="0.64"/>
<circle cx="594" cy="370" r="1.5" fill="#f0c36b" opacity="0.47"/>
<circle cx="655" cy="17" r="0.8" fill="#f0c36b" opacity="0.31"/>
<circle cx="716" cy="114" r="1.1" fill="#f0c36b" opacity="0.69"/>
<circle cx="777" cy="211" r="1.5" fill="#f0c36b" opacity="0.53"/>
<circle cx="38" cy="308" r="0.8" fill="#f0c36b" opacity="0.36"/>
<circle cx="99" cy="405" r="1.1" fill="#f0c36b" opacity="0.75"/>
<circle cx="160" cy="52" r="1.5" fill="#f0c36b" opacity="0.58"/>
<circle cx="221" cy="149" r="0.8" fill="#f0c36b" opacity="0.42"/>
<circle cx="282" cy="246" r="1.1" fill="#f0c36b" opacity="0.25"/>
<circle cx="343" cy="343" r="1.5" fill="#f0c36b" opacity="0.64"/>
<circle cx="404" cy="440" r="0.8" fill="#f0c36b" opacity="0.47"/>
<circle cx="465" cy="87" r="1.1" fill="#f0c36b" opacity="0.31"/>
<circle cx="526" cy="184" r="1.5" fill="#f0c36b" opacity="0.69"/>
<circle cx="587" cy="281" r="0.8" fill="#f0c36b" opacity="0.53"/>
<circle cx="648" cy="378" r="1.1" fill="#f0c36b" opacity="0.36"/>
<circle cx="709" cy="25" r="1.5" fill="#f0c36b" opacity="0.75"/>
<circle cx="770" cy="122" r="0.8" fill="#f0c36b" opacity="0.58"/>
<circle cx="31" cy="219" r="1.1" fill="#f0c36b" opacity="0.42"/>
<circle cx="92" cy="316" r="1.5" fill="#f0c36b" opacity="0.25"/>
<circle cx="153" cy="413" r="0.8" fill="#f0c36b" opacity="0.64"/>
<circle cx="214" cy="60" r="1.1" fill="#f0c36b" opacity="0.47"/>
<circle cx="275" cy="157" r="1.5" fill="#f0c36b" opacity="0.31"/>
<circle cx="336" cy="254" r="0.8" fill="#f0c36b" opacity="0.69"/>
<circle cx="397" cy="351" r="1.1" fill="#f0c36b" opacity="0.53"/>
<circle cx="458" cy="448" r="1.5" fill="#f0c36b" opacity="0.36"/>
<circle cx="519" cy="95" r="0.8" fill="#f0c36b" opacity="0.75"/>
<circle cx="580" cy="192" r="1.1" fill="#f0c36b" opacity="0.58"/>
<circle cx="641" cy="289" r="1.5" fill="#f0c36b" opacity="0.42"/>
<circle cx="702" cy="386" r="0.8" fill="#f0c36b" opacity="0.25"/>
<circle cx="763" cy="33" r="1.1" fill="#f0c36b" opacity="0.64"/>
<circle cx="24" cy="130" r="1.5" fill="#f0c36b" opacity="0.47"/>
<circle cx="85" cy="227" r="0.8" fill="#f0c36b" opacity="0.31"/>
<circle cx="146" cy="324" r="1.1" fill="#f0c36b" opacity="0.69"/>
<circle cx="207" cy="421" r="1.5" fill="#f0c36b" opacity="0.53"/>
<circle cx="268" cy="68" r="0.8" fill="#f0c36b" opacity="0.36"/>
<circle cx="329" cy="165" r="1.1" fill="#f0c36b" opacity="0.75"/>
<circle cx="390" cy="262" r="1.5" fill="#f0c36b" opacity="0.58"/>
<circle cx="451" cy="359" r="0.8" fill="#f0c36b" opacity="0.42"/>
<circle cx="512" cy="6" r="1.1" fill="#f0c36b" opacity="0.25"/>
<circle cx="573" cy="103" r="1.5" fill="#f0c36b" opacity="0.64"/>
<circle cx="634" cy="200" r="0.8" fill="#f0c36b" opacity="0.47"/>
<circle cx="695" cy="297" r="1.1" fill="#f0c36b" opacity="0.31"/>
<circle cx="756" cy="394" r="1.5" fill="#f0c36b" opacity="0.69"/>
<circle cx="17" cy="41" r="0.8" fill="#f0c36b" opacity="0.53"/>
<circle cx="78" cy="138" r="1.1" fill="#f0c36b" opacity="0.36"/>
<circle cx="139" cy="235" r="1.5" fill="#f0c36b" opacity="0.75"/>
<circle cx="200" cy="332" r="0.8" fill="#f0c36b" opacity="0.58"/>
<circle cx="261" cy="429" r="1.1" fill="#f0c36b" opacity="0.42"/>
<circle cx="322" cy="76" r="1.5" fill="#f0c36b" opacity="0.25"/>
<circle cx="383" cy="173" r="0.8" fill="#f0c36b" opacity="0.64"/>
<circle cx="444" cy="270" r="1.1" fill="#f0c36b" opacity="0.47"/>
<circle cx="505" cy="367" r="1.5" fill="#f0c36b" opacity="0.31"/>
  <circle cx="400" cy="245" r="118" fill="none" stroke="#f0b15c" stroke-width="8" opacity="0.55"/>
  <circle cx="400" cy="245" r="130" fill="none" stroke="#ffe0a8" stroke-width="1.5" opacity="0.62"/>
  <circle cx="400" cy="245" r="102" fill="none" stroke="#ff7a2a" stroke-width="1" opacity="0.28"/>
  
        <path d="M330 245 C360 198 430 198 470 245 C430 292 360 292 330 245 Z" fill="none" stroke="#f0c36b" stroke-width="2" opacity="0.5"/>
        <path d="M400 185 L408 234 L456 245 L408 256 L400 305 L392 256 L344 245 L392 234 Z" fill="#fff8e8" opacity="0.84"/>
        
  <circle cx="330" cy="135" r="12" fill="#fff6d7" opacity="0.98"/><circle cx="330" cy="135" r="30" fill="url(#glow)" opacity="0.45"/>
<circle cx="478" cy="353" r="12" fill="#fff6d7" opacity="0.98"/><circle cx="478" cy="353" r="30" fill="url(#glow)" opacity="0.45"/>
<circle cx="528" cy="227" r="12" fill="#fff6d7" opacity="0.98"/><circle cx="528" cy="227" r="30" fill="url(#glow)" opacity="0.45"/>
  <rect x="34" y="320" width="732" height="84" rx="20" fill="#020202" opacity="0.64" stroke="#d7a64a" stroke-width="1"/>
  <text x="60" y="356" fill="#ffe8b6" font-size="30" font-family="serif" font-weight="700">SN Refsdal</text>
  <text x="60" y="386" fill="#c7a15a" font-size="18" font-family="serif">Lensed SN · Core-collapse supernova</text>
</svg>