<svg xmlns="http://www.w3.org/2000/svg" width="800" height="450" viewBox="0 0 800 450" role="img" aria-label="SN Winny / SN 2025wny">
  <defs>
    <radialGradient id="bg" cx="50%" cy="50%" r="80%">
      <stop offset="0%" stop-color="#211207"/>
      <stop offset="42%" stop-color="#0b0a0b"/>
      <stop offset="100%" stop-color="#000000"/>
    </radialGradient>
    <radialGradient id="glow" cx="50%" cy="50%" r="50%">
      <stop offset="0%" stop-color="#ffffff" stop-opacity="1"/>
      <stop offset="35%" stop-color="#ffd88d" stop-opacity="0.76"/>
      <stop offset="100%" stop-color="#ff8a00" stop-opacity="0"/>
    </radialGradient>
    <filter id="blur"><feGaussianBlur stdDeviation="1.2"/></filter>
  </defs>
  <rect width="800" height="450" fill="url(#bg)"/>
  <circle cx="35" cy="445" r="0.8" fill="#f0c36b" opacity="0.31"/>
  <circle cx="96" cy="92" r="1.1" fill="#f0c36b" opacity="0.69"/>
  <circle cx="157" cy="189" r="1.5" fill="#f0c36b" opacity="0.53"/>
  <circle cx="218" cy="286" r="0.8" fill="#f0c36b" opacity="0.36"/>
  <circle cx="279" cy="383" r="1.1" fill="#f0c36b" opacity="0.75"/>
  <circle cx="340" cy="30" r="1.5" fill="#f0c36b" opacity="0.58"/>
  <circle cx="401" cy="127" r="0.8" fill="#f0c36b" opacity="0.42"/>
  <circle cx="462" cy="224" r="1.1" fill="#f0c36b" opacity="0.25"/>
  <circle cx="523" cy="321" r="1.5" fill="#f0c36b" opacity="0.64"/>
  <circle cx="584" cy="418" r="0.8" fill="#f0c36b" opacity="0.47"/>
  <circle cx="645" cy="65" r="1.1" fill="#f0c36b" opacity="0.31"/>
  <circle cx="706" cy="162" r="1.5" fill="#f0c36b" opacity="0.69"/>
  <circle cx="767" cy="259" r="0.8" fill="#f0c36b" opacity="0.53"/>
  <circle cx="28" cy="356" r="1.1" fill="#f0c36b" opacity="0.36"/>
  <circle cx="89" cy="3" r="1.5" fill="#f0c36b" opacity="0.75"/>
  <circle cx="150" cy="100" r="0.8" fill="#f0c36b" opacity="0.58"/>
  <circle cx="211" cy="197" r="1.1" fill="#f0c36b" opacity="0.42"/>
  <circle cx="272" cy="294" r="1.5" fill="#f0c36b" opacity="0.25"/>
  <circle cx="333" cy="391" r="0.8" fill="#f0c36b" opacity="0.64"/>
  <circle cx="394" cy="38" r="1.1" fill="#f0c36b" opacity="0.47"/>
  <circle cx="455" cy="135" r="1.5" fill="#f0c36b" opacity="0.31"/>
  <circle cx="516" cy="232" r="0.8" fill="#f0c36b" opacity="0.69"/>
  <circle cx="577" cy="329" r="1.1" fill="#f0c36b" opacity="0.53"/>
  <circle cx="638" cy="426" r="1.5" fill="#f0c36b" opacity="0.36"/>
  <circle cx="699" cy="73" r="0.8" fill="#f0c36b" opacity="0.75"/>
  <circle cx="760" cy="170" r="1.1" fill="#f0c36b" opacity="0.58"/>
  <circle cx="21" cy="267" r="1.5" fill="#f0c36b" opacity="0.42"/>
  <circle cx="82" cy="364" r="0.8" fill="#f0c36b" opacity="0.25"/>
  <circle cx="143" cy="11" r="1.1" fill="#f0c36b" opacity="0.64"/>
  <circle cx="204" cy="108" r="1.5" fill="#f0c36b" opacity="0.47"/>
  <circle cx="265" cy="205" r="0.8" fill="#f0c36b" opacity="0.31"/>
  <circle cx="326" cy="302" r="1.1" fill="#f0c36b" opacity="0.69"/>
  <circle cx="387" cy="399" r="1.5" fill="#f0c36b" opacity="0.53"/>
  <circle cx="448" cy="46" r="0.8" fill="#f0c36b" opacity="0.36"/>
  <circle cx="509" cy="143" r="1.1" fill="#f0c36b" opacity="0.75"/>
  <circle cx="570" cy="240" r="1.5" fill="#f0c36b" opacity="0.58"/>
  <circle cx="631" cy="337" r="0.8" fill="#f0c36b" opacity="0.42"/>
  <circle cx="692" cy="434" r="1.1" fill="#f0c36b" opacity="0.25"/>
  <circle cx="753" cy="81" r="1.5" fill="#f0c36b" opacity="0.64"/>
  <circle cx="14" cy="178" r="0.8" fill="#f0c36b" opacity="0.47"/>
  <circle cx="75" cy="275" r="1.1" fill="#f0c36b" opacity="0.31"/>
  <circle cx="136" cy="372" r="1.5" fill="#f0c36b" opacity="0.69"/>
  <circle cx="197" cy="19" r="0.8" fill="#f0c36b" opacity="0.53"/>
  <circle cx="258" cy="116" r="1.1" fill="#f0c36b" opacity="0.36"/>
  <circle cx="319" cy="213" r="1.5" fill="#f0c36b" opacity="0.75"/>
  <circle cx="380" cy="310" r="0.8" fill="#f0c36b" opacity="0.58"/>
  <circle cx="441" cy="407" r="1.1" fill="#f0c36b" opacity="0.42"/>
  <circle cx="502" cy="54" r="1.5" fill="#f0c36b" opacity="0.25"/>
  <circle cx="563" cy="151" r="0.8" fill="#f0c36b" opacity="0.64"/>
  <circle cx="624" cy="248" r="1.1" fill="#f0c36b" opacity="0.47"/>
  <circle cx="685" cy="345" r="1.5" fill="#f0c36b" opacity="0.31"/>
  <circle cx="746" cy="442" r="0.8" fill="#f0c36b" opacity="0.69"/>
  <circle cx="7" cy="89" r="1.1" fill="#f0c36b" opacity="0.53"/>
  <circle cx="68" cy="186" r="1.5" fill="#f0c36b" opacity="0.36"/>
  <circle cx="129" cy="283" r="0.8" fill="#f0c36b" opacity="0.75"/>
  <circle cx="190" cy="380" r="1.1" fill="#f0c36b" opacity="0.58"/>
  <circle cx="251" cy="27" r="1.5" fill="#f0c36b" opacity="0.42"/>
  <circle cx="312" cy="124" r="0.8" fill="#f0c36b" opacity="0.25"/>
  <circle cx="373" cy="221" r="1.1" fill="#f0c36b" opacity="0.64"/>
  <circle cx="434" cy="318" r="1.5" fill="#f0c36b" opacity="0.47"/>
  <circle cx="495" cy="415" r="0.8" fill="#f0c36b" opacity="0.31"/>
  <circle cx="556" cy="62" r="1.1" fill="#f0c36b" opacity="0.69"/>
  <circle cx="617" cy="159" r="1.5" fill="#f0c36b" opacity="0.53"/>
  <circle cx="678" cy="256" r="0.8" fill="#f0c36b" opacity="0.36"/>
  <circle cx="739" cy="353" r="1.1" fill="#f0c36b" opacity="0.75"/>
  <circle cx="0" cy="0" r="1.5" fill="#f0c36b" opacity="0.58"/>
  <circle cx="400" cy="245" r="118" fill="none" stroke="#f0b15c" stroke-width="8" opacity="0.55"/>
  <circle cx="400" cy="245" r="130" fill="none" stroke="#ffe0a8" stroke-width="1.5" opacity="0.62"/>
  <circle cx="400" cy="245" r="102" fill="none" stroke="#ff7a2a" stroke-width="1" opacity="0.28"/>
  <path d="M330 245 C360 198 430 198 470 245 C430 292 360 292 330 245 Z" fill="none" stroke="#f0c36b" stroke-width="2" opacity="0.5"/>
  <path d="M400 185 L408 234 L456 245 L408 256 L400 305 L392 256 L344 245 L392 234 Z" fill="#fff8e8" opacity="0.84"/>
  <circle cx="284" cy="154" r="12" fill="#fff6d7" opacity="0.98"/><circle cx="284" cy="154" r="30" fill="url(#glow)" opacity="0.45"/>
  <circle cx="524" cy="156" r="12" fill="#fff6d7" opacity="0.98"/><circle cx="524" cy="156" r="30" fill="url(#glow)" opacity="0.45"/>
  <circle cx="294" cy="346" r="12" fill="#fff6d7" opacity="0.98"/><circle cx="294" cy="346" r="30" fill="url(#glow)" opacity="0.45"/>
  <circle cx="534" cy="344" r="12" fill="#fff6d7" opacity="0.98"/><circle cx="534" cy="344" r="30" fill="url(#glow)" opacity="0.45"/>
  <rect x="34" y="320" width="732" height="84" rx="20" fill="#020202" opacity="0.64" stroke="#d7a64a" stroke-width="1"/>
  <text x="60" y="356" fill="#ffe8b6" font-size="30" font-family="serif" font-weight="700">SN Winny / SN 2025wny</text>
  <text x="60" y="386" fill="#c7a15a" font-size="18" font-family="serif">Lensed SN · quad SLSN candidate</text>
</svg>
