<svg xmlns="http://www.w3.org/2000/svg" width="800" height="450" viewBox="0 0 800 450" role="img" aria-label="SN Zwicky / SN 2022qmx">
  <defs>
    <radialGradient id="bg" cx="50%" cy="50%" r="80%">
      <stop offset="0%" stop-color="#211207"/>
      <stop offset="42%" stop-color="#0b0a0b"/>
      <stop offset="100%" stop-color="#000000"/>
    </radialGradient>
    <radialGradient id="glow" cx="50%" cy="50%" r="50%">
      <stop offset="0%" stop-color="#ffffff" stop-opacity="1"/>
      <stop offset="35%" stop-color="#ffd88d" stop-opacity="0.76"/>
      <stop offset="100%" stop-color="#ff8a00" stop-opacity="0"/>
    </radialGradient>
    <filter id="blur"><feGaussianBlur stdDeviation="1.2"/></filter>
  </defs>
  <rect width="800" height="450" fill="url(#bg)"/>
  <circle cx="370" cy="80" r="1.1" fill="#f0c36b" opacity="0.25"/>
<circle cx="431" cy="177" r="1.5" fill="#f0c36b" opacity="0.64"/>
<circle cx="492" cy="274" r="0.8" fill="#f0c36b" opacity="0.47"/>
<circle cx="553" cy="371" r="1.1" fill="#f0c36b" opacity="0.31"/>
<circle cx="614" cy="18" r="1.5" fill="#f0c36b" opacity="0.69"/>
<circle cx="675" cy="115" r="0.8" fill="#f0c36b" opacity="0.53"/>
<circle cx="736" cy="212" r="1.1" fill="#f0c36b" opacity="0.36"/>
<circle cx="797" cy="309" r="1.5" fill="#f0c36b" opacity="0.75"/>
<circle cx="58" cy="406" r="0.8" fill="#f0c36b" opacity="0.58"/>
<circle cx="119" cy="53" r="1.1" fill="#f0c36b" opacity="0.42"/>
<circle cx="180" cy="150" r="1.5" fill="#f0c36b" opacity="0.25"/>
<circle cx="241" cy="247" r="0.8" fill="#f0c36b" opacity="0.64"/>
<circle cx="302" cy="344" r="1.1" fill="#f0c36b" opacity="0.47"/>
<circle cx="363" cy="441" r="1.5" fill="#f0c36b" opacity="0.31"/>
<circle cx="424" cy="88" r="0.8" fill="#f0c36b" opacity="0.69"/>
<circle cx="485" cy="185" r="1.1" fill="#f0c36b" opacity="0.53"/>
<circle cx="546" cy="282" r="1.5" fill="#f0c36b" opacity="0.36"/>
<circle cx="607" cy="379" r="0.8" fill="#f0c36b" opacity="0.75"/>
<circle cx="668" cy="26" r="1.1" fill="#f0c36b" opacity="0.58"/>
<circle cx="729" cy="123" r="1.5" fill="#f0c36b" opacity="0.42"/>
<circle cx="790" cy="220" r="0.8" fill="#f0c36b" opacity="0.25"/>
<circle cx="51" cy="317" r="1.1" fill="#f0c36b" opacity="0.64"/>
<circle cx="112" cy="414" r="1.5" fill="#f0c36b" opacity="0.47"/>
<circle cx="173" cy="61" r="0.8" fill="#f0c36b" opacity="0.31"/>
<circle cx="234" cy="158" r="1.1" fill="#f0c36b" opacity="0.69"/>
<circle cx="295" cy="255" r="1.5" fill="#f0c36b" opacity="0.53"/>
<circle cx="356" cy="352" r="0.8" fill="#f0c36b" opacity="0.36"/>
<circle cx="417" cy="449" r="1.1" fill="#f0c36b" opacity="0.75"/>
<circle cx="478" cy="96" r="1.5" fill="#f0c36b" opacity="0.58"/>
<circle cx="539" cy="193" r="0.8" fill="#f0c36b" opacity="0.42"/>
<circle cx="600" cy="290" r="1.1" fill="#f0c36b" opacity="0.25"/>
<circle cx="661" cy="387" r="1.5" fill="#f0c36b" opacity="0.64"/>
<circle cx="722" cy="34" r="0.8" fill="#f0c36b" opacity="0.47"/>
<circle cx="783" cy="131" r="1.1" fill="#f0c36b" opacity="0.31"/>
<circle cx="44" cy="228" r="1.5" fill="#f0c36b" opacity="0.69"/>
<circle cx="105" cy="325" r="0.8" fill="#f0c36b" opacity="0.53"/>
<circle cx="166" cy="422" r="1.1" fill="#f0c36b" opacity="0.36"/>
<circle cx="227" cy="69" r="1.5" fill="#f0c36b" opacity="0.75"/>
<circle cx="288" cy="166" r="0.8" fill="#f0c36b" opacity="0.58"/>
<circle cx="349" cy="263" r="1.1" fill="#f0c36b" opacity="0.42"/>
<circle cx="410" cy="360" r="1.5" fill="#f0c36b" opacity="0.25"/>
<circle cx="471" cy="7" r="0.8" fill="#f0c36b" opacity="0.64"/>
<circle cx="532" cy="104" r="1.1" fill="#f0c36b" opacity="0.47"/>
<circle cx="593" cy="201" r="1.5" fill="#f0c36b" opacity="0.31"/>
<circle cx="654" cy="298" r="0.8" fill="#f0c36b" opacity="0.69"/>
<circle cx="715" cy="395" r="1.1" fill="#f0c36b" opacity="0.53"/>
<circle cx="776" cy="42" r="1.5" fill="#f0c36b" opacity="0.36"/>
<circle cx="37" cy="139" r="0.8" fill="#f0c36b" opacity="0.75"/>
<circle cx="98" cy="236" r="1.1" fill="#f0c36b" opacity="0.58"/>
<circle cx="159" cy="333" r="1.5" fill="#f0c36b" opacity="0.42"/>
<circle cx="220" cy="430" r="0.8" fill="#f0c36b" opacity="0.25"/>
<circle cx="281" cy="77" r="1.1" fill="#f0c36b" opacity="0.64"/>
<circle cx="342" cy="174" r="1.5" fill="#f0c36b" opacity="0.47"/>
<circle cx="403" cy="271" r="0.8" fill="#f0c36b" opacity="0.31"/>
<circle cx="464" cy="368" r="1.1" fill="#f0c36b" opacity="0.69"/>
<circle cx="525" cy="15" r="1.5" fill="#f0c36b" opacity="0.53"/>
<circle cx="586" cy="112" r="0.8" fill="#f0c36b" opacity="0.36"/>
<circle cx="647" cy="209" r="1.1" fill="#f0c36b" opacity="0.75"/>
<circle cx="708" cy="306" r="1.5" fill="#f0c36b" opacity="0.58"/>
<circle cx="769" cy="403" r="0.8" fill="#f0c36b" opacity="0.42"/>
<circle cx="30" cy="50" r="1.1" fill="#f0c36b" opacity="0.25"/>
<circle cx="91" cy="147" r="1.5" fill="#f0c36b" opacity="0.64"/>
<circle cx="152" cy="244" r="0.8" fill="#f0c36b" opacity="0.47"/>
<circle cx="213" cy="341" r="1.1" fill="#f0c36b" opacity="0.31"/>
<circle cx="274" cy="438" r="1.5" fill="#f0c36b" opacity="0.69"/>
<circle cx="335" cy="85" r="0.8" fill="#f0c36b" opacity="0.53"/>
<circle cx="396" cy="182" r="1.1" fill="#f0c36b" opacity="0.36"/>
<circle cx="457" cy="279" r="1.5" fill="#f0c36b" opacity="0.75"/>
<circle cx="518" cy="376" r="0.8" fill="#f0c36b" opacity="0.58"/>
<circle cx="579" cy="23" r="1.1" fill="#f0c36b" opacity="0.42"/>
  <circle cx="400" cy="245" r="118" fill="none" stroke="#f0b15c" stroke-width="8" opacity="0.55"/>
  <circle cx="400" cy="245" r="130" fill="none" stroke="#ffe0a8" stroke-width="1.5" opacity="0.62"/>
  <circle cx="400" cy="245" r="102" fill="none" stroke="#ff7a2a" stroke-width="1" opacity="0.28"/>
  
        <path d="M330 245 C360 198 430 198 470 245 C430 292 360 292 330 245 Z" fill="none" stroke="#f0c36b" stroke-width="2" opacity="0.5"/>
        <path d="M400 185 L408 234 L456 245 L408 256 L400 305 L392 256 L344 245 L392 234 Z" fill="#fff8e8" opacity="0.84"/>
        
  <circle cx="280" cy="155" r="12" fill="#fff6d7" opacity="0.98"/><circle cx="280" cy="155" r="30" fill="url(#glow)" opacity="0.45"/>
<circle cx="528" cy="161" r="12" fill="#fff6d7" opacity="0.98"/><circle cx="528" cy="161" r="30" fill="url(#glow)" opacity="0.45"/>
<circle cx="300" cy="345" r="12" fill="#fff6d7" opacity="0.98"/><circle cx="300" cy="345" r="30" fill="url(#glow)" opacity="0.45"/>
<circle cx="522" cy="341" r="12" fill="#fff6d7" opacity="0.98"/><circle cx="522" cy="341" r="30" fill="url(#glow)" opacity="0.45"/>
  <rect x="34" y="320" width="732" height="84" rx="20" fill="#020202" opacity="0.64" stroke="#d7a64a" stroke-width="1"/>
  <text x="60" y="356" fill="#ffe8b6" font-size="30" font-family="serif" font-weight="700">SN Zwicky / SN 2022qmx</text>
  <text x="60" y="386" fill="#c7a15a" font-size="18" font-family="serif">Lensed SN · Type Ia supernova</text>
</svg>