<svg xmlns="http://www.w3.org/2000/svg" width="800" height="450" viewBox="0 0 800 450" role="img" aria-label="WFI 2033−4723">
  <defs>
    <radialGradient id="bg" cx="50%" cy="50%" r="80%">
      <stop offset="0%" stop-color="#211207"/>
      <stop offset="42%" stop-color="#0b0a0b"/>
      <stop offset="100%" stop-color="#000000"/>
    </radialGradient>
    <radialGradient id="glow" cx="50%" cy="50%" r="50%">
      <stop offset="0%" stop-color="#ffffff" stop-opacity="1"/>
      <stop offset="35%" stop-color="#ffd88d" stop-opacity="0.76"/>
      <stop offset="100%" stop-color="#ff8a00" stop-opacity="0"/>
    </radialGradient>
    <filter id="blur"><feGaussianBlur stdDeviation="1.2"/></filter>
  </defs>
  <rect width="800" height="450" fill="url(#bg)"/>
  <circle cx="185" cy="265" r="1.5" fill="#f0c36b" opacity="0.53"/>
<circle cx="246" cy="362" r="0.8" fill="#f0c36b" opacity="0.36"/>
<circle cx="307" cy="9" r="1.1" fill="#f0c36b" opacity="0.75"/>
<circle cx="368" cy="106" r="1.5" fill="#f0c36b" opacity="0.58"/>
<circle cx="429" cy="203" r="0.8" fill="#f0c36b" opacity="0.42"/>
<circle cx="490" cy="300" r="1.1" fill="#f0c36b" opacity="0.25"/>
<circle cx="551" cy="397" r="1.5" fill="#f0c36b" opacity="0.64"/>
<circle cx="612" cy="44" r="0.8" fill="#f0c36b" opacity="0.47"/>
<circle cx="673" cy="141" r="1.1" fill="#f0c36b" opacity="0.31"/>
<circle cx="734" cy="238" r="1.5" fill="#f0c36b" opacity="0.69"/>
<circle cx="795" cy="335" r="0.8" fill="#f0c36b" opacity="0.53"/>
<circle cx="56" cy="432" r="1.1" fill="#f0c36b" opacity="0.36"/>
<circle cx="117" cy="79" r="1.5" fill="#f0c36b" opacity="0.75"/>
<circle cx="178" cy="176" r="0.8" fill="#f0c36b" opacity="0.58"/>
<circle cx="239" cy="273" r="1.1" fill="#f0c36b" opacity="0.42"/>
<circle cx="300" cy="370" r="1.5" fill="#f0c36b" opacity="0.25"/>
<circle cx="361" cy="17" r="0.8" fill="#f0c36b" opacity="0.64"/>
<circle cx="422" cy="114" r="1.1" fill="#f0c36b" opacity="0.47"/>
<circle cx="483" cy="211" r="1.5" fill="#f0c36b" opacity="0.31"/>
<circle cx="544" cy="308" r="0.8" fill="#f0c36b" opacity="0.69"/>
<circle cx="605" cy="405" r="1.1" fill="#f0c36b" opacity="0.53"/>
<circle cx="666" cy="52" r="1.5" fill="#f0c36b" opacity="0.36"/>
<circle cx="727" cy="149" r="0.8" fill="#f0c36b" opacity="0.75"/>
<circle cx="788" cy="246" r="1.1" fill="#f0c36b" opacity="0.58"/>
<circle cx="49" cy="343" r="1.5" fill="#f0c36b" opacity="0.42"/>
<circle cx="110" cy="440" r="0.8" fill="#f0c36b" opacity="0.25"/>
<circle cx="171" cy="87" r="1.1" fill="#f0c36b" opacity="0.64"/>
<circle cx="232" cy="184" r="1.5" fill="#f0c36b" opacity="0.47"/>
<circle cx="293" cy="281" r="0.8" fill="#f0c36b" opacity="0.31"/>
<circle cx="354" cy="378" r="1.1" fill="#f0c36b" opacity="0.69"/>
<circle cx="415" cy="25" r="1.5" fill="#f0c36b" opacity="0.53"/>
<circle cx="476" cy="122" r="0.8" fill="#f0c36b" opacity="0.36"/>
<circle cx="537" cy="219" r="1.1" fill="#f0c36b" opacity="0.75"/>
<circle cx="598" cy="316" r="1.5" fill="#f0c36b" opacity="0.58"/>
<circle cx="659" cy="413" r="0.8" fill="#f0c36b" opacity="0.42"/>
<circle cx="720" cy="60" r="1.1" fill="#f0c36b" opacity="0.25"/>
<circle cx="781" cy="157" r="1.5" fill="#f0c36b" opacity="0.64"/>
<circle cx="42" cy="254" r="0.8" fill="#f0c36b" opacity="0.47"/>
<circle cx="103" cy="351" r="1.1" fill="#f0c36b" opacity="0.31"/>
<circle cx="164" cy="448" r="1.5" fill="#f0c36b" opacity="0.69"/>
<circle cx="225" cy="95" r="0.8" fill="#f0c36b" opacity="0.53"/>
<circle cx="286" cy="192" r="1.1" fill="#f0c36b" opacity="0.36"/>
<circle cx="347" cy="289" r="1.5" fill="#f0c36b" opacity="0.75"/>
<circle cx="408" cy="386" r="0.8" fill="#f0c36b" opacity="0.58"/>
<circle cx="469" cy="33" r="1.1" fill="#f0c36b" opacity="0.42"/>
<circle cx="530" cy="130" r="1.5" fill="#f0c36b" opacity="0.25"/>
<circle cx="591" cy="227" r="0.8" fill="#f0c36b" opacity="0.64"/>
<circle cx="652" cy="324" r="1.1" fill="#f0c36b" opacity="0.47"/>
<circle cx="713" cy="421" r="1.5" fill="#f0c36b" opacity="0.31"/>
<circle cx="774" cy="68" r="0.8" fill="#f0c36b" opacity="0.69"/>
<circle cx="35" cy="165" r="1.1" fill="#f0c36b" opacity="0.53"/>
<circle cx="96" cy="262" r="1.5" fill="#f0c36b" opacity="0.36"/>
<circle cx="157" cy="359" r="0.8" fill="#f0c36b" opacity="0.75"/>
<circle cx="218" cy="6" r="1.1" fill="#f0c36b" opacity="0.58"/>
<circle cx="279" cy="103" r="1.5" fill="#f0c36b" opacity="0.42"/>
<circle cx="340" cy="200" r="0.8" fill="#f0c36b" opacity="0.25"/>
<circle cx="401" cy="297" r="1.1" fill="#f0c36b" opacity="0.64"/>
<circle cx="462" cy="394" r="1.5" fill="#f0c36b" opacity="0.47"/>
<circle cx="523" cy="41" r="0.8" fill="#f0c36b" opacity="0.31"/>
<circle cx="584" cy="138" r="1.1" fill="#f0c36b" opacity="0.69"/>
<circle cx="645" cy="235" r="1.5" fill="#f0c36b" opacity="0.53"/>
<circle cx="706" cy="332" r="0.8" fill="#f0c36b" opacity="0.36"/>
<circle cx="767" cy="429" r="1.1" fill="#f0c36b" opacity="0.75"/>
<circle cx="28" cy="76" r="1.5" fill="#f0c36b" opacity="0.58"/>
<circle cx="89" cy="173" r="0.8" fill="#f0c36b" opacity="0.42"/>
<circle cx="150" cy="270" r="1.1" fill="#f0c36b" opacity="0.25"/>
<circle cx="211" cy="367" r="1.5" fill="#f0c36b" opacity="0.64"/>
<circle cx="272" cy="14" r="0.8" fill="#f0c36b" opacity="0.47"/>
<circle cx="333" cy="111" r="1.1" fill="#f0c36b" opacity="0.31"/>
<circle cx="394" cy="208" r="1.5" fill="#f0c36b" opacity="0.69"/>
  <circle cx="400" cy="245" r="132" fill="none" stroke="#f0b15c" stroke-width="8" opacity="0.55"/>
  <circle cx="400" cy="245" r="144" fill="none" stroke="#ffe0a8" stroke-width="1.5" opacity="0.62"/>
  <circle cx="400" cy="245" r="116" fill="none" stroke="#ff7a2a" stroke-width="1" opacity="0.28"/>
  
        <ellipse cx="400" cy="245" rx="92" ry="34" fill="none" stroke="#ffd88d" stroke-width="4" opacity="0.75" transform="rotate(-28 400 245)"/>
        <ellipse cx="400" cy="245" rx="60" ry="20" fill="#ffd88d" opacity="0.25" transform="rotate(-28 400 245)"/>
        
  <circle cx="280" cy="155" r="10" fill="#fff6d7" opacity="0.98"/><circle cx="280" cy="155" r="25" fill="url(#glow)" opacity="0.45"/>
<circle cx="528" cy="161" r="10" fill="#fff6d7" opacity="0.98"/><circle cx="528" cy="161" r="25" fill="url(#glow)" opacity="0.45"/>
<circle cx="300" cy="345" r="10" fill="#fff6d7" opacity="0.98"/><circle cx="300" cy="345" r="25" fill="url(#glow)" opacity="0.45"/>
<circle cx="522" cy="341" r="10" fill="#fff6d7" opacity="0.98"/><circle cx="522" cy="341" r="25" fill="url(#glow)" opacity="0.45"/>
  <rect x="34" y="320" width="732" height="84" rx="20" fill="#020202" opacity="0.64" stroke="#d7a64a" stroke-width="1"/>
  <text x="60" y="356" fill="#ffe8b6" font-size="30" font-family="serif" font-weight="700">WFI 2033−4723</text>
  <text x="60" y="386" fill="#c7a15a" font-size="18" font-family="serif">Lensed QSO · Quadruply imaged quasar</text>
</svg>