<svg xmlns="http://www.w3.org/2000/svg" width="800" height="450" viewBox="0 0 800 450" role="img" aria-label="WGD 2038−4008">
  <defs>
    <radialGradient id="bg" cx="50%" cy="50%" r="80%">
      <stop offset="0%" stop-color="#211207"/>
      <stop offset="42%" stop-color="#0b0a0b"/>
      <stop offset="100%" stop-color="#000000"/>
    </radialGradient>
    <radialGradient id="glow" cx="50%" cy="50%" r="50%">
      <stop offset="0%" stop-color="#ffffff" stop-opacity="1"/>
      <stop offset="35%" stop-color="#ffd88d" stop-opacity="0.76"/>
      <stop offset="100%" stop-color="#ff8a00" stop-opacity="0"/>
    </radialGradient>
    <filter id="blur"><feGaussianBlur stdDeviation="1.2"/></filter>
  </defs>
  <rect width="800" height="450" fill="url(#bg)"/>
  <circle cx="0" cy="0" r="0.8" fill="#f0c36b" opacity="0.25"/>
<circle cx="61" cy="97" r="1.1" fill="#f0c36b" opacity="0.64"/>
<circle cx="122" cy="194" r="1.5" fill="#f0c36b" opacity="0.47"/>
<circle cx="183" cy="291" r="0.8" fill="#f0c36b" opacity="0.31"/>
<circle cx="244" cy="388" r="1.1" fill="#f0c36b" opacity="0.69"/>
<circle cx="305" cy="35" r="1.5" fill="#f0c36b" opacity="0.53"/>
<circle cx="366" cy="132" r="0.8" fill="#f0c36b" opacity="0.36"/>
<circle cx="427" cy="229" r="1.1" fill="#f0c36b" opacity="0.75"/>
<circle cx="488" cy="326" r="1.5" fill="#f0c36b" opacity="0.58"/>
<circle cx="549" cy="423" r="0.8" fill="#f0c36b" opacity="0.42"/>
<circle cx="610" cy="70" r="1.1" fill="#f0c36b" opacity="0.25"/>
<circle cx="671" cy="167" r="1.5" fill="#f0c36b" opacity="0.64"/>
<circle cx="732" cy="264" r="0.8" fill="#f0c36b" opacity="0.47"/>
<circle cx="793" cy="361" r="1.1" fill="#f0c36b" opacity="0.31"/>
<circle cx="54" cy="8" r="1.5" fill="#f0c36b" opacity="0.69"/>
<circle cx="115" cy="105" r="0.8" fill="#f0c36b" opacity="0.53"/>
<circle cx="176" cy="202" r="1.1" fill="#f0c36b" opacity="0.36"/>
<circle cx="237" cy="299" r="1.5" fill="#f0c36b" opacity="0.75"/>
<circle cx="298" cy="396" r="0.8" fill="#f0c36b" opacity="0.58"/>
<circle cx="359" cy="43" r="1.1" fill="#f0c36b" opacity="0.42"/>
<circle cx="420" cy="140" r="1.5" fill="#f0c36b" opacity="0.25"/>
<circle cx="481" cy="237" r="0.8" fill="#f0c36b" opacity="0.64"/>
<circle cx="542" cy="334" r="1.1" fill="#f0c36b" opacity="0.47"/>
<circle cx="603" cy="431" r="1.5" fill="#f0c36b" opacity="0.31"/>
<circle cx="664" cy="78" r="0.8" fill="#f0c36b" opacity="0.69"/>
<circle cx="725" cy="175" r="1.1" fill="#f0c36b" opacity="0.53"/>
<circle cx="786" cy="272" r="1.5" fill="#f0c36b" opacity="0.36"/>
<circle cx="47" cy="369" r="0.8" fill="#f0c36b" opacity="0.75"/>
<circle cx="108" cy="16" r="1.1" fill="#f0c36b" opacity="0.58"/>
<circle cx="169" cy="113" r="1.5" fill="#f0c36b" opacity="0.42"/>
<circle cx="230" cy="210" r="0.8" fill="#f0c36b" opacity="0.25"/>
<circle cx="291" cy="307" r="1.1" fill="#f0c36b" opacity="0.64"/>
<circle cx="352" cy="404" r="1.5" fill="#f0c36b" opacity="0.47"/>
<circle cx="413" cy="51" r="0.8" fill="#f0c36b" opacity="0.31"/>
<circle cx="474" cy="148" r="1.1" fill="#f0c36b" opacity="0.69"/>
<circle cx="535" cy="245" r="1.5" fill="#f0c36b" opacity="0.53"/>
<circle cx="596" cy="342" r="0.8" fill="#f0c36b" opacity="0.36"/>
<circle cx="657" cy="439" r="1.1" fill="#f0c36b" opacity="0.75"/>
<circle cx="718" cy="86" r="1.5" fill="#f0c36b" opacity="0.58"/>
<circle cx="779" cy="183" r="0.8" fill="#f0c36b" opacity="0.42"/>
<circle cx="40" cy="280" r="1.1" fill="#f0c36b" opacity="0.25"/>
<circle cx="101" cy="377" r="1.5" fill="#f0c36b" opacity="0.64"/>
<circle cx="162" cy="24" r="0.8" fill="#f0c36b" opacity="0.47"/>
<circle cx="223" cy="121" r="1.1" fill="#f0c36b" opacity="0.31"/>
<circle cx="284" cy="218" r="1.5" fill="#f0c36b" opacity="0.69"/>
<circle cx="345" cy="315" r="0.8" fill="#f0c36b" opacity="0.53"/>
<circle cx="406" cy="412" r="1.1" fill="#f0c36b" opacity="0.36"/>
<circle cx="467" cy="59" r="1.5" fill="#f0c36b" opacity="0.75"/>
<circle cx="528" cy="156" r="0.8" fill="#f0c36b" opacity="0.58"/>
<circle cx="589" cy="253" r="1.1" fill="#f0c36b" opacity="0.42"/>
<circle cx="650" cy="350" r="1.5" fill="#f0c36b" opacity="0.25"/>
<circle cx="711" cy="447" r="0.8" fill="#f0c36b" opacity="0.64"/>
<circle cx="772" cy="94" r="1.1" fill="#f0c36b" opacity="0.47"/>
<circle cx="33" cy="191" r="1.5" fill="#f0c36b" opacity="0.31"/>
<circle cx="94" cy="288" r="0.8" fill="#f0c36b" opacity="0.69"/>
<circle cx="155" cy="385" r="1.1" fill="#f0c36b" opacity="0.53"/>
<circle cx="216" cy="32" r="1.5" fill="#f0c36b" opacity="0.36"/>
<circle cx="277" cy="129" r="0.8" fill="#f0c36b" opacity="0.75"/>
<circle cx="338" cy="226" r="1.1" fill="#f0c36b" opacity="0.58"/>
<circle cx="399" cy="323" r="1.5" fill="#f0c36b" opacity="0.42"/>
<circle cx="460" cy="420" r="0.8" fill="#f0c36b" opacity="0.25"/>
<circle cx="521" cy="67" r="1.1" fill="#f0c36b" opacity="0.64"/>
<circle cx="582" cy="164" r="1.5" fill="#f0c36b" opacity="0.47"/>
<circle cx="643" cy="261" r="0.8" fill="#f0c36b" opacity="0.31"/>
<circle cx="704" cy="358" r="1.1" fill="#f0c36b" opacity="0.69"/>
<circle cx="765" cy="5" r="1.5" fill="#f0c36b" opacity="0.53"/>
<circle cx="26" cy="102" r="0.8" fill="#f0c36b" opacity="0.36"/>
<circle cx="87" cy="199" r="1.1" fill="#f0c36b" opacity="0.75"/>
<circle cx="148" cy="296" r="1.5" fill="#f0c36b" opacity="0.58"/>
<circle cx="209" cy="393" r="0.8" fill="#f0c36b" opacity="0.42"/>
  <circle cx="400" cy="245" r="132" fill="none" stroke="#f0b15c" stroke-width="8" opacity="0.55"/>
  <circle cx="400" cy="245" r="144" fill="none" stroke="#ffe0a8" stroke-width="1.5" opacity="0.62"/>
  <circle cx="400" cy="245" r="116" fill="none" stroke="#ff7a2a" stroke-width="1" opacity="0.28"/>
  
        <ellipse cx="400" cy="245" rx="92" ry="34" fill="none" stroke="#ffd88d" stroke-width="4" opacity="0.75" transform="rotate(-28 400 245)"/>
        <ellipse cx="400" cy="245" rx="60" ry="20" fill="#ffd88d" opacity="0.25" transform="rotate(-28 400 245)"/>
        
  <circle cx="280" cy="155" r="10" fill="#fff6d7" opacity="0.98"/><circle cx="280" cy="155" r="25" fill="url(#glow)" opacity="0.45"/>
<circle cx="528" cy="161" r="10" fill="#fff6d7" opacity="0.98"/><circle cx="528" cy="161" r="25" fill="url(#glow)" opacity="0.45"/>
<circle cx="300" cy="345" r="10" fill="#fff6d7" opacity="0.98"/><circle cx="300" cy="345" r="25" fill="url(#glow)" opacity="0.45"/>
<circle cx="522" cy="341" r="10" fill="#fff6d7" opacity="0.98"/><circle cx="522" cy="341" r="25" fill="url(#glow)" opacity="0.45"/>
  <rect x="34" y="320" width="732" height="84" rx="20" fill="#020202" opacity="0.64" stroke="#d7a64a" stroke-width="1"/>
  <text x="60" y="356" fill="#ffe8b6" font-size="30" font-family="serif" font-weight="700">WGD 2038−4008</text>
  <text x="60" y="386" fill="#c7a15a" font-size="18" font-family="serif">Lensed QSO · Quadruply imaged quasar</text>
</svg>